<?xml version="1.0" standalone="no"?>
<!DOCTYPE svg PUBLIC "-//W3C//DTD SVG 1.1//EN" "http://www.w3.org/Graphics/SVG/1.1/DTD/svg11.dtd" >
<svg xmlns="http://www.w3.org/2000/svg">
<metadata></metadata>
<defs>
<font id="bandera_proitalic" horiz-adv-x="1421" >
<font-face units-per-em="2048" ascent="1536" descent="-512" />
<missing-glyph horiz-adv-x="550" />
<glyph unicode="&#xfb01;" horiz-adv-x="1259" d="M-262 -504l61 131q45 -20 115 -20q71 0 135.5 83.5t89.5 237.5l152 967h-121l8 123l133 6l23 145q16 100 44.5 170t79.5 122t130 77t190 25q100 0 287 -66l12 47h117l-37 -303h-117l11 137q-173 60 -254 60q-78 0 -129.5 -15t-86 -51t-53.5 -87t-32 -132l-21 -129h344 l-16 -129h-348l-150 -967q-36 -230 -150 -349.5t-243 -119.5q-63 0 -106.5 9.5t-55.5 18.5zM874 102q0 31 5 60l114 733l-116 6l8 123h293l-127 -817q-1 -53 12 -69.5t37 -16.5l98 4l-8 -115q-105 -22 -203 -22q-56 0 -84.5 25t-28.5 89z" />
<glyph unicode="&#xfb02;" horiz-adv-x="1265" d="M-262 -504l61 131q45 -20 115 -20q71 0 135.5 83.5t89.5 237.5l152 967h-121l8 123l133 6l23 145q16 100 44.5 170t79.5 122t130 77t190 25q105 0 314 -74l8 47h166l-207 -1335q-3 -49 10.5 -64.5t38.5 -15.5l96 4l-6 -115q-105 -22 -203 -22q-56 0 -84 25t-28 89 q0 37 4 60l186 1208q-195 68 -276 68q-78 0 -129.5 -15t-86 -51t-53.5 -87t-32 -132l-21 -129h344l-16 -129h-348l-150 -967q-36 -230 -150 -349.5t-243 -119.5q-63 0 -106.5 9.5t-55.5 18.5z" />
<glyph unicode="&#xfb03;" horiz-adv-x="2000" d="M-246 -504l62 131q44 -20 114 -20q72 0 136.5 83.5t89.5 237.5l151 967h-121l9 123l133 6l22 145q16 100 44.5 170t79.5 122t130.5 77t190.5 25q60 0 155 -24.5t160 -49.5l64 -25l-29 -73q51 87 141 129.5t236 42.5q95 0 286 -66l11 47h118l-39 -303h-114l10 135 q-179 62 -254 62q-79 0 -130.5 -15t-86 -51.5t-53 -87t-31.5 -131.5l-20 -129h344l-17 -129h-348l-151 -967q-19 -118 -61 -211t-97 -147.5t-114.5 -82.5t-119.5 -28q-63 0 -107 9.5t-56 18.5l-13 9l62 131q44 -20 116 -20t136.5 83.5t89.5 235.5v2l151 967h-123l11 123 l133 6l22 145q16 112 51 187q-1 0 -22.5 8t-45 16t-58.5 19t-66.5 19t-65 14t-57.5 6q-78 0 -129.5 -15t-86 -51t-53.5 -87t-32 -132l-20 -129h344l-17 -129h-348l-149 -967q-15 -96 -46 -175.5t-70.5 -133t-87 -90.5t-95.5 -53.5t-95 -16.5q-63 0 -106.5 9.5t-55.5 18.5z M1618 102q0 37 4 60l115 733l-117 6l8 123h293l-127 -817q-1 -53 12 -69.5t37 -16.5l99 4l-9 -115q-104 -22 -202 -22q-56 0 -84.5 25t-28.5 89z" />
<glyph unicode="&#xfb04;" horiz-adv-x="2007" d="M-246 -504l62 131q44 -20 114 -20q72 0 136.5 83.5t89.5 237.5l151 967h-121l9 123l133 6l22 145q16 100 44.5 170t79.5 122t130.5 77t190.5 25q148 0 393 -113q107 113 334 113q103 0 313 -76l8 49h164l-199 -1278l-6 -35q-5 -62 8 -82t39 -20l99 4l-6 -115 q-105 -22 -205 -22q-55 0 -84 25t-29 87q0 28 6 62l187 1206q-176 70 -277 70q-79 0 -130.5 -15t-86 -51.5t-53 -87t-31.5 -131.5l-20 -129h344l-17 -129h-348l-151 -967q-19 -118 -61 -211t-97 -147.5t-114.5 -82.5t-119.5 -28q-63 0 -107 9.5t-56 18.5l-13 9l62 131 q44 -20 116 -20t136.5 83.5t89.5 237.5l151 967h-123l11 123l133 6l22 145q16 107 49 181q-199 88 -313 88q-78 0 -129.5 -15t-86 -51t-53.5 -87t-32 -132l-20 -129h344l-17 -129h-348l-149 -967q-15 -96 -46 -175.5t-70.5 -133t-87 -90.5t-95.5 -53.5t-95 -16.5 q-63 0 -106.5 9.5t-55.5 18.5z" />
<glyph horiz-adv-x="2048" />
<glyph horiz-adv-x="2048" />
<glyph unicode="&#xd;" horiz-adv-x="2048" />
<glyph unicode=" "  horiz-adv-x="550" />
<glyph unicode="&#x09;" horiz-adv-x="550" />
<glyph unicode="&#xa0;" horiz-adv-x="550" />
<glyph unicode="!" horiz-adv-x="643" d="M172 63q0 52 41 82q36 25 76 25q41 0 69 -25q23 -23 23 -55q0 -50 -43 -84q-34 -24 -76 -24q-43 0 -67 24q-23 23 -23 57zM262 434l121 916l33 186h172l-31 -186l-160 -916h-135z" />
<glyph unicode="&#x22;" horiz-adv-x="692" d="M184 1069l70 463h152l-105 -463h-117zM514 1069l70 463h151l-104 -463h-117z" />
<glyph unicode="#" horiz-adv-x="1126" d="M121 446l16 107h213l88 221h-268l16 109h295l111 280l94 -24l-102 -256h204l105 264l94 -27l-94 -237h194l-18 -109h-217l-88 -221h272l-16 -107h-297l-111 -282l-92 26l98 256h-206l-105 -264l-92 25l94 239h-188zM453 553h209l86 221h-207z" />
<glyph unicode="$" horiz-adv-x="976" d="M96 160l23 260l104 6l-12 -168q112 -35 227 -35q146 0 223.5 62t77.5 147q0 44 -29 77t-75.5 55t-102.5 41.5t-112 43t-102.5 53t-75.5 78t-29 111.5q0 130 92 207t236 88l41 248h123l-31 -256q87 -19 172 -82l28 71h87l-33 -280h-103l-4 100q-90 84 -215 84 q-98 0 -161.5 -44.5t-63.5 -119.5q0 -45 29.5 -78.5t76.5 -55t103.5 -40.5t113 -41t103.5 -50t76.5 -74t29.5 -107q0 -64 -23 -121t-69.5 -105.5t-125.5 -81t-183 -42.5l-35 -213h-123l25 208q-82 3 -152.5 16.5t-100.5 25.5z" />
<glyph unicode="%" horiz-adv-x="1886" d="M193 903q0 200 120 327.5t316 127.5q150 0 233.5 -87.5t83.5 -236.5q0 -198 -119 -323t-317 -125q-152 0 -234.5 85.5t-82.5 231.5zM330 911q0 -96 50.5 -152.5t145.5 -56.5q127 0 206 89.5t79 238.5q0 97 -52 154t-147 57q-128 0 -205 -88.5t-77 -241.5zM481 25 l869 1288l123 -21l-869 -1288zM1022 289q0 200 120 327t316 127q150 0 234 -87.5t84 -235.5q0 -198 -119.5 -323.5t-317.5 -125.5q-152 0 -234.5 86t-82.5 232zM1159 297q0 -96 51 -152.5t146 -56.5q127 0 205.5 89t78.5 239q0 97 -51.5 154t-146.5 57q-129 0 -206 -88.5 t-77 -241.5z" />
<glyph unicode="&#x26;" horiz-adv-x="1417" d="M100 319q0 79 29 144t79 109t107.5 73.5t124.5 46.5q-71 44 -116 115.5t-45 165.5q0 172 114.5 278.5t300.5 106.5q131 0 217 -82l27 63h94l-43 -297h-119l13 125q-57 62 -156 62q-135 0 -213 -73.5t-78 -199.5q0 -96 59 -156t136 -63h319l86 287h99l-45 -287h305 l-17 -116h-307l-53 -338q-6 -34 -6 -64q0 -65 31 -93t92 -28q38 0 77.5 4t59.5 8l20 5l-16 -115q-62 -29 -201 -29q-180 0 -215 133q-137 -133 -356 -133q-105 0 -184.5 28t-126.5 77.5t-70 110.5t-23 132zM272 344q0 -104 69.5 -174t211.5 -70q56 0 105 13t80.5 31.5 t58 43.5t40 44t23.5 38v4q25 179 62 347h-318q-61 -1 -117.5 -17t-106 -47.5t-79 -86.5t-29.5 -126z" />
<glyph unicode="'" horiz-adv-x="362" d="M184 1069l70 463h152l-105 -463h-117z" />
<glyph unicode="(" horiz-adv-x="718" d="M209 270q0 144 22 287q20 129 55 251t74.5 213t83.5 171.5t83.5 135.5t71 94.5t50.5 57.5l19 19l116 -51q-12 -13 -33 -38.5t-77.5 -112t-104.5 -182.5t-98.5 -247.5t-75.5 -310.5q-22 -140 -22 -285q0 -108 14 -209.5t33.5 -168.5t39.5 -118.5t34 -75.5l14 -24l-127 -51 q-7 9 -18.5 25.5t-41 76t-52.5 128t-41.5 181t-18.5 234.5z" />
<glyph unicode=")" horiz-adv-x="716" d="M-16 -324q12 13 33 38.5t77.5 112t104.5 182.5t98.5 247.5t75.5 310.5q22 140 22 283q0 109 -14 210.5t-34 169t-40.5 119t-34.5 75.5l-14 24l133 51q7 -8 18.5 -25t40.5 -76t51.5 -127.5t41 -180.5t18.5 -234q0 -146 -22 -289q-20 -129 -55 -251t-75 -213t-84 -171.5 t-83.5 -135.5t-71.5 -94.5t-51 -57.5l-19 -19z" />
<glyph unicode="*" horiz-adv-x="921" d="M150 1079l67 144l309 -152l19 371h153l-96 -369l356 150l27 -144l-367 -78l199 -276l-135 -90l-135 315l-232 -315l-110 90l287 272z" />
<glyph unicode="+" horiz-adv-x="954" d="M96 506l8 125h345l53 342h131l-53 -342h331l-16 -125h-334l-51 -342h-133l53 342h-334z" />
<glyph unicode="," horiz-adv-x="526" d="M-12 -281q81 67 130 157.5t52 162.5q-20 7 -31 18q-23 25 -17.5 60.5t36.5 60.5q27 21 65 21q36 0 60 -21l4 -6q22 -27 22 -82q0 -100 -72.5 -229t-175.5 -195z" />
<glyph unicode="-" horiz-adv-x="694" d="M96 506l10 125h545l-18 -125h-537z" />
<glyph unicode="." horiz-adv-x="563" d="M125 63q0 52 41 82q36 25 76 25q41 0 69 -25q23 -23 23 -55q0 -50 -43 -84q-35 -24 -76 -24q-44 0 -68 24q-22 22 -22 57z" />
<glyph unicode="/" horiz-adv-x="978" d="M-154 -512l1207 2048h153l-1204 -2048h-156z" />
<glyph unicode="0" horiz-adv-x="1320" d="M158 518q0 185 39.5 337t118 265t204 175.5t289.5 62.5q221 0 331.5 -123t110.5 -356q0 -83 -16 -195q-32 -216 -113 -374t-216 -248.5t-310 -90.5q-217 0 -327.5 147t-110.5 400zM330 498q0 -189 72.5 -294.5t209.5 -105.5q175 0 289.5 152t157.5 434q18 111 18 199 q0 348 -286 348q-216 0 -338.5 -181.5t-122.5 -551.5z" />
<glyph unicode="1" horiz-adv-x="866" d="M199 0l10 123l190 4l166 1057l-286 -117l-27 119l362 145h138l-189 -1210l119 -6l-25 -115h-458z" />
<glyph unicode="2" horiz-adv-x="1120" d="M39 0l20 137q3 1 48 30.5t119 83.5t161 122.5t175.5 152.5t160 168.5t117 175.5t45.5 168q0 92 -56 138.5t-182 46.5q-146 0 -272 -95l-25 -108h-119l56 319h96l4 -82q169 101 334 101q173 0 259.5 -80t86.5 -223q0 -73 -30.5 -153t-80 -152.5t-120 -148.5t-141 -139 t-153 -126.5t-147 -108.5t-131.5 -88h582l41 158l114 -8l-51 -289h-911z" />
<glyph unicode="3" horiz-adv-x="1120" d="M74 33l28 256l113 8l-8 -166q97 -29 221 -29q194 0 305 95.5t111 244.5q0 95 -68 152t-192 57q-36 0 -71.5 -11t-50.5 -19t-24 -15l-63 80l502 508h-484l-37 -166h-114l53 311l131 -8h668l-13 -96l-479 -469q6 0 21 1t22 1q167 0 267 -85t100 -230q0 -218 -162.5 -350 t-427.5 -132q-107 0 -194 15.5t-120 31.5z" />
<glyph unicode="4" horiz-adv-x="1161" d="M72 354l6 103q121 166 260.5 408t249.5 485l153 -19q-201 -436 -483 -852h504l76 473l47 185h141l-100 -658h166l-13 -114l-174 -11l-37 -241l119 -7l-20 -106h-410l8 115l140 6l36 233h-669z" />
<glyph unicode="5" horiz-adv-x="1095" d="M74 33l28 256l113 6l-8 -164q89 -29 215 -29q184 0 298 105t114 256q0 104 -80.5 170.5t-218.5 66.5q-55 0 -104.5 -11.5t-72.5 -22t-32 -17.5l-82 10l170 672h547l22 74l115 -8l-39 -211l-141 8h-400l-104 -393q81 18 151 18q203 0 319.5 -91.5t116.5 -248.5 q0 -150 -75.5 -266t-208.5 -179t-301 -63q-72 0 -133.5 6.5t-98 15.5t-63 18t-37.5 15z" />
<glyph unicode="6" horiz-adv-x="1216" d="M139 428q0 27 2.5 55.5t5.5 49t8 44t8 36t7.5 29.5t5.5 20q76 345 230 520.5t354 175.5q126 0 227 -92l29 73h96l-37 -297h-119l7 111q-83 78 -193 78q-156 0 -266.5 -127.5t-163.5 -378.5q172 121 369 121q195 0 303 -84t108 -238q0 -32 -6 -73q-14 -94 -57 -179 t-110 -153t-166 -108t-216 -40q-206 0 -316 122t-110 335zM303 387q0 -138 69.5 -217.5t209.5 -79.5q81 0 147.5 32.5t109.5 86.5t69.5 115.5t37.5 128.5q19 123 -48.5 202.5t-223.5 79.5q-70 0 -132 -18.5t-103.5 -48t-66 -53t-40.5 -46.5q-16 -54 -21 -84q-8 -47 -8 -98z " />
<glyph unicode="7" horiz-adv-x="989" d="M170 1020l57 319l129 -8h734l-19 -135q-192 -256 -381.5 -580.5t-304.5 -615.5h-188q210 525 682 1186h-557l-37 -166h-115z" />
<glyph unicode="8" horiz-adv-x="1181" d="M96 285q0 84 31.5 153.5t86 116.5t111.5 77.5t124 51.5q-216 84 -216 289q0 182 137.5 283.5t368.5 101.5q189 0 296.5 -77.5t107.5 -217.5q0 -80 -29 -146t-79 -110.5t-102.5 -73.5t-115.5 -49q250 -77 250 -297q0 -208 -144.5 -312t-396.5 -104q-204 0 -317 78 t-113 236zM279 299q0 -107 68.5 -162t193.5 -55q161 0 253.5 79t92.5 226q0 52 -20 94t-48.5 66.5t-67.5 42t-69 24.5t-61 11q-36 -5 -72 -13.5t-87.5 -32.5t-89.5 -57t-65.5 -91.5t-27.5 -131.5zM403 971q0 -52 18.5 -93.5t45 -66t62 -42.5t63.5 -25t57 -11q34 5 68 13.5 t82 32t83.5 56.5t61 90.5t25.5 129.5q0 192 -244 192q-156 0 -239 -71.5t-83 -204.5z" />
<glyph unicode="9" horiz-adv-x="1216" d="M145 12l33 275l115 8l-10 -176q86 -21 204 -21q169 0 295 131t176 373q-143 -143 -372 -143q-191 0 -297.5 105.5t-106.5 273.5q0 102 39.5 195.5t110.5 166t180 115.5t238 43q205 0 310 -104.5t105 -307.5q0 -32 -3.5 -68.5t-9.5 -70.5t-11 -58.5t-11 -50.5t-6 -28 q-69 -342 -239.5 -520.5t-405.5 -178.5q-95 0 -178.5 10.5t-119.5 20.5zM350 846q0 -52 15.5 -99.5t47 -88.5t85.5 -65t123 -24q68 0 127.5 16.5t100.5 43t65.5 48t41.5 42.5q45 132 45 252q0 268 -268 268q-91 0 -166 -35t-121 -92.5t-71 -126t-25 -139.5z" />
<glyph unicode=":" horiz-adv-x="567" d="M125 63q0 52 41 82q36 25 76 25q41 0 69 -25q23 -23 23 -55q0 -50 -43 -84q-35 -24 -76 -24q-44 0 -68 24q-22 22 -22 57zM246 840q0 52 41 82q35 24 75 24q43 0 70 -24q23 -23 23 -56q0 -50 -43 -84q-35 -24 -76 -24q-44 0 -68 24q-22 22 -22 58z" />
<glyph unicode=";" horiz-adv-x="563" d="M10 -281q81 67 130.5 157.5t52.5 162.5q-19 7 -31 18q-23 25 -18 60.5t36 60.5q27 21 66 21q35 0 59 -21l4 -6q23 -29 23 -82q0 -100 -72.5 -229t-175.5 -195zM246 840q0 52 41 82q35 24 75 24q43 0 70 -24q23 -23 23 -56q0 -50 -43 -84q-35 -24 -76 -24q-44 0 -68 24 q-22 22 -22 58z" />
<glyph unicode="&#x3c;" horiz-adv-x="866" d="M182 651l633 408l62 -78l-527 -330l424 -332l-84 -77z" />
<glyph unicode="=" horiz-adv-x="1101" d="M66 303l8 125h954l-16 -125h-946zM127 709l8 125h955l-17 -125h-946z" />
<glyph unicode="&#x3e;" horiz-adv-x="866" d="M68 319l526 332l-424 330l84 78l510 -408l-633 -409z" />
<glyph unicode="?" horiz-adv-x="964" d="M184 63q0 52 41 82q36 25 76 25q42 0 70 -25q22 -22 22 -55q0 -50 -43 -84q-34 -24 -76 -24q-43 0 -67 24q-23 23 -23 57zM219 1233l53 311h97l4 -74q143 93 282 93q160 0 249 -81.5t89 -209.5q0 -77 -22 -138.5t-58.5 -103.5t-83.5 -77t-98.5 -63.5t-103 -57.5 t-96.5 -65.5t-79 -80.5t-51 -109.5t-12 -146.5l-96 -8q-4 58 -4 80q0 77 18.5 140.5t49.5 107t71.5 79t85 63t89 53t85 53.5t71.5 60.5t49.5 79t18.5 103.5q0 81 -58 136t-181 55q-133 0 -226 -82l-26 -117h-117z" />
<glyph unicode="@" horiz-adv-x="1964" d="M117 254q0 243 67 436t198 328.5t329.5 207.5t455.5 72q341 0 531 -159.5t190 -440.5q0 -184 -43 -327t-116 -228t-162.5 -127.5t-190.5 -42.5q-87 0 -136 24t-58 81q-107 -107 -277 -107q-153 0 -241.5 93t-88.5 262q0 231 135 370.5t353 139.5q147 0 229 -82l39 53h72 l-98 -629q-9 -60 16 -84t78 -24q46 0 92 17t94.5 61.5t85.5 111.5t60.5 176.5t23.5 247.5q0 239 -154 368.5t-440 129.5q-427 0 -661 -227.5t-234 -675.5q0 -296 177.5 -465.5t480.5 -169.5q103 0 198.5 19.5t158 47.5t110.5 56t70 47l22 20l30 -104q-7 -8 -21 -22.5 t-67 -50.5t-116 -63.5t-170.5 -50t-227.5 -22.5q-376 0 -585 197.5t-209 535.5zM711 330q0 -122 61.5 -191t173.5 -69q52 0 97.5 16.5t75 42t46.5 46.5t27 40l65 416q-4 15 -13.5 30.5t-29.5 34.5t-59 31t-92 12q-167 0 -259.5 -107.5t-92.5 -301.5z" />
<glyph unicode="A" d="M-78 0l10 123l164 6l647 1202h228l274 -1210l156 -6l-17 -115h-464l14 98l137 4l-74 308h-587l-164 -304l139 -4l-14 -102h-449zM471 522h502l-146 670z" />
<glyph unicode="B" horiz-adv-x="1282" d="M33 0l10 123l164 6l168 1081l-162 7l8 114h570q204 0 305.5 -71t101.5 -199q0 -217 -227 -350q99 -30 153 -96.5t54 -163.5q0 -96 -32.5 -175.5t-100 -142.5t-183.5 -98t-272 -35h-557zM360 127h238q414 0 414 319q0 185 -254 185h-320zM455 743h311q29 0 63 10t70.5 33 t65.5 55.5t48 83t19 109.5q0 92 -67.5 132t-200.5 40h-238z" />
<glyph unicode="C" horiz-adv-x="1349" d="M143 573q0 172 56 319t153.5 249t232 159.5t289.5 57.5q181 0 324 -113l39 94h104l-61 -460h-129l25 247q-127 93 -285 93q-119 0 -222.5 -42.5t-181.5 -122t-123 -204t-45 -279.5q0 -215 129 -337.5t332 -122.5q79 0 152.5 20t122 48.5t86 57t54.5 48.5l17 20l70 -92 q-7 -10 -20 -26t-60.5 -58t-103 -74t-147 -58t-191.5 -26q-278 0 -447.5 163.5t-169.5 438.5z" />
<glyph unicode="D" horiz-adv-x="1521" d="M33 0l10 123l164 6l168 1081l-162 7l8 114h627q294 0 457 -134t163 -394q0 -370 -215 -586.5t-594 -216.5h-626zM379 139h301q282 0 446 170.5t164 485.5q0 198 -121 297.5t-340 99.5h-286z" />
<glyph unicode="E" horiz-adv-x="1220" d="M33 0l10 123l164 6l168 1081l-162 7l8 114h850l150 8l-19 -141l-20 -164h-135l12 164h-514l-72 -463l600 2l-18 -129h-602l-74 -475h573l45 184l125 -8l-55 -309h-1034z" />
<glyph unicode="F" horiz-adv-x="1118" d="M33 0l10 123l164 6l168 1081l-162 7l8 114h871l149 8l-39 -305h-135l12 164h-534l-74 -467h576l-19 -129h-577l-74 -481l201 -6l-25 -115h-520z" />
<glyph unicode="G" horiz-adv-x="1466" d="M141 555q0 372 206 587.5t550 215.5q167 0 307 -107l33 88h102l-49 -399h-129l19 190q-102 89 -275 89q-283 0 -434.5 -163.5t-151.5 -477.5q0 -216 114.5 -341.5t305.5 -125.5q80 0 147.5 18t107 42.5t69.5 56.5t41.5 52t17.5 37l33 207h-315l16 113h463l-98 -637h-103 l-2 127q-144 -156 -424 -156q-254 0 -402.5 161t-148.5 423z" />
<glyph unicode="H" horiz-adv-x="1556" d="M33 0l10 123l164 6l168 1081l-162 7l8 114h502l-18 -123l-160 -6l-74 -477h715l74 477l-160 6l8 123h502l-19 -123l-159 -6l-166 -1081l157 -6l-14 -115h-487l8 123l164 6l71 467h-714l-74 -469l160 -4l-17 -123h-487z" />
<glyph unicode="I" horiz-adv-x="669" d="M33 0l10 123l164 6l168 1081l-162 7l8 114h502l-18 -123l-160 -6l-168 -1081l160 -6l-17 -115h-487z" />
<glyph unicode="J" horiz-adv-x="911" d="M-4 18l27 285l122 8l-16 -188q69 -21 143 -21q207 0 252 281l129 827l-190 7l8 114h500l-17 -123l-133 -6l-125 -819q-15 -97 -44.5 -169.5t-67.5 -118.5t-89 -74t-104.5 -39t-118.5 -11q-86 0 -155 11.5t-95 23.5z" />
<glyph unicode="K" horiz-adv-x="1445" d="M33 0l10 123l164 6l168 1081l-162 7l8 114h486l-17 -106l-143 -6l-92 -592l207 127l493 471l-90 4l14 102h465l-18 -123l-217 -6l-523 -502l408 -575l215 -2l-16 -123h-318l-69 70l-367 520l-211 -131l-51 -332l160 -4l-17 -123h-487z" />
<glyph unicode="L" horiz-adv-x="1136" d="M33 0l10 123l164 6l168 1081l-162 7l8 114h502l-18 -123l-160 -6l-166 -1069h557l45 193l127 -9l-57 -317h-1018z" />
<glyph unicode="M" horiz-adv-x="2033" d="M33 0l10 123l164 6l168 1081l-162 7l10 114h393l367 -1155h2l725 1155h377l-16 -123l-162 -6l-164 -1075l160 -4l-19 -123h-465l9 106l147 7l156 985h-2l-695 -1098h-166l-348 1098h-2l-158 -989l146 -7l-14 -102h-461z" />
<glyph unicode="N" horiz-adv-x="1599" d="M33 0l10 123l164 6l168 1081l-162 7l8 114h352l609 -1116l2 49l147 942l-162 8l9 117h491l-18 -123l-158 -6l-188 -1214h-179l-614 1099h-2v-63l-145 -899l161 -8l-16 -117h-477z" />
<glyph unicode="O" horiz-adv-x="1544" d="M143 567q0 365 209 578t566 213q274 0 423.5 -139t149.5 -390q0 -69 -12 -145q-34 -212 -137 -372.5t-268.5 -250.5t-371.5 -90q-264 0 -411.5 163.5t-147.5 432.5zM319 573q0 -209 106.5 -335.5t297.5 -126.5q227 0 382 156.5t195 416.5q11 62 11 129 q0 195 -107.5 300.5t-304.5 105.5q-267 0 -423.5 -172t-156.5 -474z" />
<glyph unicode="P" horiz-adv-x="1177" d="M33 0l10 123l164 6l168 1081l-162 7l8 114h533q210 0 323 -81.5t113 -250.5q0 -110 -34 -201t-90.5 -151.5t-131 -102.5t-153.5 -60.5t-160 -18.5h-203l-56 -352l189 -7l-14 -106h-504zM436 586h168q81 0 151.5 22t128.5 66.5t92 120.5t34 176q0 233 -303 233h-175z" />
<glyph unicode="Q" horiz-adv-x="1542" d="M143 567q0 365 209 578t566 213q274 0 423.5 -143.5t149.5 -403.5q0 -217 -81.5 -396t-234 -293.5t-354.5 -141.5q129 -146 297 -146q58 0 119 21l-2 -129q-77 -25 -148 -25q-134 0 -252.5 72t-181.5 200q-243 15 -376.5 176t-133.5 418zM319 573q0 -208 106.5 -335 t297.5 -127q174 0 309 89.5t208 245t73 349.5q0 201 -109 312.5t-305 111.5q-267 0 -423.5 -172.5t-156.5 -473.5z" />
<glyph unicode="R" horiz-adv-x="1275" d="M33 0l10 123l164 10l168 1077l-162 7l8 114h533q211 0 324.5 -82t113.5 -245q0 -189 -98 -317t-252 -181l225 -381l201 -2l-19 -123h-297l-57 68l-229 407h-246l-58 -362l146 -7l-14 -106h-461zM440 604h193q174 0 276.5 94t102.5 283q0 115 -76.5 169t-228.5 54h-175z " />
<glyph unicode="S" horiz-adv-x="1175" d="M96 53l39 293l119 8l-10 -207q130 -49 284 -49q179 0 276 78.5t97 194.5q0 55 -36 97.5t-93 71t-126 54.5t-138.5 57t-126.5 69t-93 100t-36 141q0 183 134.5 290t354.5 107q152 0 271 -109l39 90h104l-39 -313h-135l8 117q-88 88 -231 88q-157 0 -245.5 -67t-88.5 -185 q0 -58 36 -102t93 -73.5t126 -56t138.5 -56t126.5 -66t93 -95t36 -133.5q0 -193 -146 -309.5t-399 -116.5q-82 0 -156.5 8.5t-122.5 20.5t-84.5 24t-52.5 20z" />
<glyph unicode="T" horiz-adv-x="1097" d="M96 1018l54 321l147 -8h795l149 8l-41 -321h-127l10 180h-325l-166 -1071l160 -4l-17 -123h-487l8 123l164 6l164 1069h-320l-45 -180h-123z" />
<glyph unicode="U" horiz-adv-x="1505" d="M176 1217l8 114h500l-14 -114l-160 -7l-113 -721q-6 -40 -6 -75q0 -132 81 -212.5t239 -80.5q182 0 293 102.5t137 265.5l110 717l-161 8l10 117h495l-16 -114l-160 -7l-116 -755q-13 -79 -43.5 -149.5t-82.5 -132t-121 -106.5t-163.5 -70.5t-204.5 -25.5 q-122 0 -214.5 30.5t-148.5 85.5t-84 125.5t-28 154.5q0 26 8 88l117 755z" />
<glyph unicode="V" horiz-adv-x="1359" d="M86 1217l10 114h471l-16 -114l-135 -7l229 -1083h2l563 1079l-137 8l8 117h465l-14 -114l-152 -7l-645 -1210h-225l-268 1210z" />
<glyph unicode="W" horiz-adv-x="2078" d="M86 1217l10 114h469l-14 -114l-137 -7l151 -1020l539 1141h180l193 -1138l456 1013l-143 8l8 117h467l-14 -114l-148 -7l-565 -1210h-182l-193 1120l-545 -1120h-182l-198 1210z" />
<glyph unicode="X" horiz-adv-x="1411" d="M-57 0l10 123l207 4l483 537l-311 546l-195 7l8 114h488l-15 -114l-90 -5l240 -428l373 426l-90 4l16 117h471l-16 -123l-201 -4l-471 -534l319 -545l203 -2l-16 -123h-488l15 115l88 2l-244 432l-379 -428l90 -2l-16 -119h-479z" />
<glyph unicode="Y" horiz-adv-x="1294" d="M61 1217l11 114h495l-16 -114l-109 -5l265 -516l419 514l-100 4l16 117h463l-18 -123l-189 -4l-530 -651l-68 -426l160 -4l-18 -123h-488l11 123l163 6l66 422l-344 659z" />
<glyph unicode="Z" horiz-adv-x="1232" d="M29 0l16 117l995 1081h-671l-35 -164h-133l47 281l2 16l2 8l147 -8h879l-16 -117l-996 -1081h699l45 184l125 -8l-56 -309h-1050z" />
<glyph unicode="[" horiz-adv-x="780" d="M121 -156l244 1592h553l-17 -117h-407l-209 -1356h405l-18 -119h-551z" />
<glyph unicode="\" horiz-adv-x="978" d="M125 1536h154l573 -2048h-154z" />
<glyph unicode="]" horiz-adv-x="780" d="M-61 -156l16 119h410l208 1354h-405l14 119h553l-243 -1592h-553z" />
<glyph unicode="^" horiz-adv-x="788" d="M180 1065l369 342l264 -342l-80 -66l-205 275l-292 -275z" />
<glyph unicode="_" horiz-adv-x="1466" d="M-29 -313l9 125h1318l-18 -125h-1309z" />
<glyph unicode="`" horiz-adv-x="483" d="M131 1456l160 19l149 -293l-118 -11z" />
<glyph unicode="a" horiz-adv-x="1224" d="M92 412q0 139 39 256t111.5 203t183.5 134t248 48q61 0 113 -11t83.5 -26t54 -30.5t31.5 -26.5l9 -11l39 76h129l-117 -766q-6 -41 -6 -68q0 -29 7.5 -45.5t16.5 -20t23 -3.5l98 4l-8 -115q-105 -22 -203 -22q-61 0 -86 30q-18 22 -18 70q0 17 2 37q-10 -12 -18.5 -21.5 t-43 -37t-71.5 -45.5t-98 -34t-128 -16q-179 0 -285 120.5t-106 320.5zM260 410q0 -149 77 -230.5t214 -81.5q65 0 123 20.5t96 51.5t55 48.5t27 31.5l90 581q-3 5 -11 14t-28.5 24.5t-46 27.5t-66.5 21.5t-88 9.5q-223 0 -332.5 -134t-109.5 -384z" />
<glyph unicode="b" horiz-adv-x="1202" d="M119 0l217 1407l-117 6l8 123h295l-96 -625h2q4 6 12.5 15.5t39.5 34t67 43t96 34t127 15.5q186 0 292.5 -104t106.5 -298q0 -134 -39.5 -256t-111.5 -216.5t-183.5 -151t-246.5 -56.5q-69 0 -127 13t-94 34t-53 34t-29 26l-35 -78h-131zM313 188q8 -11 20.5 -22 t40.5 -29t74.5 -29.5t104.5 -11.5q115 0 203 46.5t139.5 125.5t77.5 175.5t26 205.5q0 277 -297 277q-54 0 -103.5 -14t-81 -32t-58 -41t-37.5 -35.5t-16 -21.5z" />
<glyph unicode="c" horiz-adv-x="989" d="M92 428q0 296 135.5 460.5t386.5 164.5q152 0 258 -97l29 76h107l-45 -346h-127l12 160q-60 86 -203 86q-193 0 -287 -119.5t-94 -376.5q0 -161 92 -252.5t230 -91.5q52 0 98.5 12.5t75.5 31t50.5 36.5t30.5 30l9 13l84 -57q-4 -8 -12 -20.5t-39 -44.5t-70 -57 t-107.5 -45t-148.5 -20q-206 0 -335.5 124t-129.5 333z" />
<glyph unicode="d" horiz-adv-x="1214" d="M92 412q0 186 64.5 329t196 227.5t313.5 84.5q60 0 112 -10t83.5 -24.5t54 -29.5t31.5 -25l9 -10h5l69 453l-119 6l11 123h290l-196 -1278q-6 -41 -6 -68q0 -29 7.5 -45.5t16.5 -20t23 -3.5l98 4l-8 -115q-105 -22 -203 -22q-60 0 -84 29q-19 23 -20 73q0 14 2 31 q-4 -6 -13 -16t-41.5 -36t-70 -46t-101 -36t-133.5 -16q-179 0 -285 120.5t-106 320.5zM260 410q0 -149 77 -230.5t214 -81.5q64 0 121 18.5t95 47t56 45.5t29 31l90 596q-13 16 -35 33.5t-79 38t-126 20.5q-223 0 -332.5 -134t-109.5 -384z" />
<glyph unicode="e" horiz-adv-x="1050" d="M92 412q0 176 73 322t206.5 232.5t300.5 86.5q164 0 264 -79.5t100 -209.5q0 -177 -177 -242t-605 -65v-43q0 -151 87.5 -234.5t225.5 -83.5q60 0 113 14t86 33.5t58 39.5t36 34l10 14l86 -61q-4 -8 -13.5 -21.5t-44.5 -48t-77.5 -60.5t-116.5 -47.5t-159 -21.5 q-203 0 -328 116t-125 325zM266 559q349 0 486 41t137 156q0 79 -61 127.5t-173 48.5q-152 0 -255 -100t-134 -273z" />
<glyph unicode="f" horiz-adv-x="724" d="M72 -512l219 1407h-121l8 123l133 6q0 539 371 539q85 0 180 -66l21 47h96l-33 -287h-119l9 121q-62 62 -131 62q-53 0 -93.5 -19.5t-73.5 -65t-50.5 -129t-18.5 -202.5h350l-18 -129h-350l-218 -1407h-161z" />
<glyph unicode="g" horiz-adv-x="1204" d="M86 -459l37 260l110 6l-14 -184q100 -47 234 -47q177 0 276 123q92 115 92 329v31v9q-48 -32 -79 -46q-112 -51 -246 -51q-195 0 -297.5 124t-102.5 333q0 288 155.5 456.5t397.5 168.5q69 0 126 -15t89 -37t53.5 -44t28.5 -37l8 -15l35 119h144l-146 -954q1 -16 1 -32 q0 -130 -36 -235q-41 -118 -116.5 -192t-175.5 -113t-218 -39q-71 0 -133.5 8.5t-101.5 20.5t-68 24t-41 20zM266 432q0 -162 73.5 -251t229.5 -89q146 0 271 90l94 609q-4 9 -10.5 20.5t-27.5 34t-46.5 40t-70.5 31t-97 13.5q-194 0 -305 -121.5t-111 -376.5z" />
<glyph unicode="h" horiz-adv-x="1208" d="M119 0l217 1407l-115 6l6 123h293l-94 -600h4l8 6q7 7 22 17.5t36 22.5t51.5 24.5t65 23t80 17t93.5 6.5q320 0 320 -248q0 -33 -6 -70l-82 -514q-1 -17 -1 -31q0 -36 9 -50q13 -20 39 -19l98 4l-6 -115q-105 -22 -205 -22q-56 0 -83 25t-27 89q0 37 4 60l86 543 q4 25 4 47q0 73 -44 111q-56 50 -181 50q-54 0 -105 -10.5t-85.5 -26t-61 -31t-39.5 -25.5l-12 -11l-125 -809h-164z" />
<glyph unicode="i" horiz-adv-x="530" d="M147 102q0 31 5 60l114 733l-116 6l8 123h293l-127 -817v-7q0 -46 12 -62q13 -16 37 -17l98 4l-8 -115q-105 -22 -203 -22q-56 0 -84.5 25t-28.5 89zM311 1305q0 54 41 86q28 22 74 22q45 0 70 -22q18 -21 18 -56q0 -55 -39 -88q-29 -20 -74 -20q-47 0 -69 22 q-21 21 -21 56z" />
<glyph unicode="j" horiz-adv-x="532" d="M-266 -504l53 131q45 -20 117 -20q70 0 135 84t90 237l150 967l-115 6l10 123h289l-170 -1096q-18 -119 -60.5 -212t-97.5 -147.5t-114.5 -82t-120.5 -27.5q-62 0 -103.5 9.5t-52.5 18.5zM324 1305q0 54 41 86q28 22 73 22t70 -22q18 -21 18 -56q0 -55 -39 -88 q-29 -20 -73 -20q-48 0 -70 22q-20 20 -20 56z" />
<glyph unicode="k" horiz-adv-x="1103" d="M119 0l217 1407l-115 6l6 123h293l-98 -631q173 148 346 148q141 0 220 -67.5t79 -188.5q0 -75 -28.5 -138t-79.5 -109t-109.5 -78.5t-130.5 -57.5q155 -290 217 -293l104 4l-6 -115q-82 -22 -180 -22q-63 0 -131.5 94.5t-167.5 286.5q-129 -26 -221 -31l-51 -338h-164z M350 442q52 4 102 11t117.5 21t123.5 38t105.5 57.5t78 84t28.5 112.5q0 81 -49 124.5t-137 43.5q-62 0 -130.5 -35t-111 -72t-80.5 -79z" />
<glyph unicode="l" horiz-adv-x="522" d="M139 102q0 37 4 60l193 1245l-117 6l10 123h293l-207 -1329v-7q0 -46 12 -62q13 -17 38 -17l98 4l-8 -115q-105 -22 -203 -22q-56 0 -84.5 25t-28.5 89z" />
<glyph unicode="m" horiz-adv-x="1712" d="M127 0l137 895l-117 6l11 123h272l-2 -102q10 11 31.5 28t63.5 42.5t106.5 43t134.5 17.5q198 0 240 -127q16 15 40 31.5t69.5 40.5t111.5 39.5t139 15.5q128 0 190 -49t62 -162q0 -36 -6 -82l-86 -559q-1 -9 -1 -17q0 -36 11 -48q13 -16 37 -15l98 4l-8 -115 q-105 -22 -203 -22q-56 0 -83 25t-27 89q0 37 4 60l90 573q5 31 5 57q0 59 -26 85q-37 38 -133 38q-144 0 -274 -104q0 -17 -4 -49l-117 -762h-166l115 735q5 32 5 57q0 58 -25 84q-36 38 -128 39q-53 0 -103.5 -13t-86.5 -33t-56 -33.5t-32 -24.5l-125 -811h-164z" />
<glyph unicode="n" horiz-adv-x="1218" d="M127 0l137 895l-117 6l11 123h272l2 -90q13 13 36.5 29t67.5 38.5t113 37t148 14.5q317 0 317 -246q0 -35 -6 -72l-82 -526v-8q0 -48 12 -63q13 -17 37 -17l99 4l-9 -115q-104 -22 -202 -22q-67 0 -95 38q-19 25 -19 77q0 26 5 59q84 529 86 543q4 26 4 49q0 71 -42 109 q-56 50 -181 50q-178 0 -303 -102l-2 -2l-125 -809h-164z" />
<glyph unicode="o" horiz-adv-x="1159" d="M92 414q0 293 155.5 466t440.5 173q213 0 323.5 -112.5t110.5 -315.5q0 -191 -70.5 -338.5t-207.5 -231.5t-322 -84q-210 0 -320 118.5t-110 324.5zM260 408q0 -149 71 -232.5t210 -83.5q198 0 304.5 141.5t106.5 391.5q0 146 -70.5 226.5t-209.5 80.5 q-200 0 -306 -136.5t-106 -387.5z" />
<glyph unicode="p" horiz-adv-x="1204" d="M45 -512l219 1407l-117 6l11 123h272l-6 -123q12 16 33.5 35t65.5 48.5t113 49t148 19.5q184 0 287 -103.5t103 -294.5q0 -135 -39 -258t-111 -218t-183 -151.5t-245 -56.5q-61 0 -113.5 10t-84.5 24.5t-55 29.5t-33 25l-9 10h-2l-90 -582h-164zM317 188q7 -9 21.5 -21.5 t43 -30t75 -29t100.5 -11.5q146 0 248.5 72.5t151.5 196t49 288.5q0 143 -75.5 208t-219.5 65q-56 0 -107.5 -15t-85.5 -37t-60 -44t-38 -37l-12 -15z" />
<glyph unicode="q" horiz-adv-x="1206" d="M92 412q0 138 39.5 255.5t113 203t184.5 134t247 48.5q186 0 289 -103l41 74h129l-205 -1327v-7q0 -46 12 -63q13 -18 35 -18l98 4l-8 -115q-105 -22 -203 -22q-56 0 -83 25t-27 89q0 37 4 60l73 471h-2q-4 -6 -12.5 -16t-39.5 -36t-67 -46t-97 -36t-128 -16 q-181 0 -287 120t-106 321zM262 408q0 -151 75.5 -230.5t213.5 -79.5q65 0 121 17.5t93 45t55.5 45.5t29.5 34l92 591q-81 97 -237 97q-443 0 -443 -520z" />
<glyph unicode="r" horiz-adv-x="858" d="M127 0l137 895l-133 6l10 123h273l-8 -156h2q2 4 6 10.5t19 26t32.5 37t45.5 38.5t59 36.5t73.5 26t87.5 10.5q39 0 80.5 -7.5t63.5 -14.5l22 -7l-37 -311h-115l5 202q-62 5 -72 5q-57 0 -108 -20.5t-84 -51.5t-51 -53t-27 -39l-117 -756h-164z" />
<glyph unicode="s" horiz-adv-x="976" d="M76 25l22 260l105 6l-13 -168q112 -35 228 -35q146 0 223.5 62t77.5 147q0 44 -29 77t-75.5 55t-102.5 41.5t-112 43t-102.5 53t-75.5 78t-29 111.5q0 142 106.5 219.5t269.5 77.5q131 0 256 -92l29 71h86l-33 -280h-102l-4 100q-90 84 -215 84q-98 0 -162 -44.5 t-64 -119.5q0 -45 29.5 -78.5t76.5 -55t103.5 -40.5t113.5 -41t104 -50t76.5 -74t29.5 -107q0 -56 -17 -107t-55 -96.5t-94 -79t-139.5 -53t-186.5 -19.5q-95 0 -176 13.5t-115 27.5z" />
<glyph unicode="t" horiz-adv-x="751" d="M160 895l8 123l133 4v2l68 324h147l-51 -324h309l-18 -129h-312l-90 -584q-6 -43 -6 -78q0 -62 25.5 -89t83.5 -27q43 0 85 5t62 10l21 5l-13 -110q-8 -5 -24 -12t-74.5 -19t-126.5 -12q-106 0 -157.5 46t-51.5 150q0 47 8 94l95 621h-121z" />
<glyph unicode="u" horiz-adv-x="1212" d="M127 901l10 123h291l-104 -664q-4 -27 -4 -51q0 -77 44 -129q58 -68 177 -67q55 0 106 10.5t85.5 25.5t60.5 30t39 25l12 11l104 680l-117 6l9 123h295l-127 -809q-1 -14 -1 -25q0 -37 10 -51q13 -18 38 -18l96 4l-6 -115q-105 -22 -205 -22q-54 0 -77.5 23t-22.5 85h-4 q-5 -5 -14.5 -13.5t-43.5 -30t-73.5 -38t-104 -30t-135.5 -13.5q-150 0 -232.5 75.5t-82.5 211.5q0 34 6 72l86 565z" />
<glyph unicode="v" horiz-adv-x="1042" d="M31 901l10 123h285l178 -854h2q131 170 251 366t185 359l-127 12l10 117h305q-102 -394 -606 -1024h-153l-201 895z" />
<glyph unicode="w" horiz-adv-x="1562" d="M27 901l10 123h268l92 -829h2l381 829h158l158 -829h4q109 154 206 342t154 356l-133 14l8 117h305q-50 -223 -180.5 -491t-331.5 -533h-159l-135 821l-398 -821h-170l-112 895z" />
<glyph unicode="x" horiz-adv-x="1146" d="M29 0l12 78q7 17 167.5 182t280.5 279l-215 356l-176 6l4 123h285l244 -434h4q206 201 293 315l-107 10l2 109h307l-12 -78q-2 -8 -63 -81t-157.5 -180t-178.5 -189q93 -160 173 -267.5t116 -107.5l120 4l-6 -115q-98 -22 -196 -22q-62 0 -160 129t-199 327h-6 q-183 -175 -309 -317l92 -8l-18 -119h-297z" />
<glyph unicode="y" horiz-adv-x="1067" d="M-70 -492l37 293l111 6l-15 -217q47 -14 89 -14q56 0 100 24t73 61.5t50.5 96.5t34 116t22.5 132l-256 889l-141 6l8 123h279l235 -860h2q263 400 391 731l-123 12l11 117h284l-6 -80q-111 -326 -520 -934q-13 -110 -46.5 -206t-87.5 -175t-136.5 -124.5t-184.5 -45.5 q-67 0 -119.5 12.5t-71.5 24.5z" />
<glyph unicode="z" horiz-adv-x="999" d="M14 70l768 829h-450l-37 -164h-117l51 305l131 -16h631l-8 -111l-690 -757q54 -5 207.5 -26.5t244.5 -27.5l48 205l116 -8l-55 -326q-143 0 -361.5 30.5t-308.5 33.5l-88 -66z" />
<glyph unicode="{" horiz-adv-x="878" d="M250 532l18 125l2 7q36 0 78.5 16t82.5 45.5t66.5 79.5t26.5 110q0 36 -6 122.5t-6 127.5q0 70 10 121.5t40 100t80 79t134 48.5t199 18l-17 -117q-96 0 -159 -20.5t-95 -61t-43.5 -87t-11.5 -113.5q0 -40 6.5 -125.5t6.5 -124.5q0 -91 -50.5 -165.5t-132.5 -121.5 q52 -34 81.5 -82.5t29.5 -103.5q0 -52 -20 -114.5t-44.5 -111.5t-44.5 -113.5t-20 -119.5q0 -83 57.5 -126.5t186.5 -43.5l-17 -117q-203 0 -289 60.5t-86 175.5q0 63 20 133t44.5 121t44.5 110t20 103q0 70 -62 117.5t-130 47.5z" />
<glyph unicode="|" horiz-adv-x="681" d="M125 -512l317 2048h152l-318 -2048h-151z" />
<glyph unicode="}" horiz-adv-x="876" d="M-16 -336l18 117q95 0 158 20.5t94.5 61t43 87t11.5 113.5q0 40 -5 125.5t-5 124.5q0 90 49 164.5t131 120.5q-110 73 -110 188q0 52 20 114.5t44.5 111.5t44.5 113.5t20 119.5q0 83 -57.5 126.5t-184.5 43.5l16 117q203 0 288 -60t85 -176q0 -63 -20 -133t-44.5 -121 t-44.5 -110t-20 -103q0 -70 63 -117.5t130 -47.5l-13 -76l-6 -56q-37 0 -79.5 -16t-82.5 -45.5t-66 -79.5t-26 -110q0 -36 5 -122.5t5 -127.5q0 -70 -10 -121.5t-39.5 -100t-80 -79t-134 -48.5t-198.5 -18z" />
<glyph unicode="~" horiz-adv-x="1349" d="M106 678q5 8 15.5 21t46.5 46.5t77.5 59t109.5 46.5t141 21q81 0 145 -18.5t106.5 -45.5t83 -54t96 -45.5t124.5 -18.5q42 0 80.5 9t63.5 22t43.5 26t27.5 22l8 9l57 -71q-5 -7 -14 -19t-41 -43t-68.5 -54.5t-97 -43t-125.5 -19.5q-75 0 -134.5 18t-101 44t-83 52.5 t-101 44.5t-133.5 18q-76 0 -140.5 -26.5t-91.5 -52.5l-26 -26z" />
<glyph unicode="&#xa1;" horiz-adv-x="643" d="M90 -512l29 186l164 916h133l-125 -916l-27 -186h-174zM299 934q0 52 41 82q34 24 76 24t69 -24q23 -23 23 -55q0 -50 -43 -84q-36 -25 -76 -25q-42 0 -67 25q-23 23 -23 57z" />
<glyph unicode="&#xa2;" horiz-adv-x="989" d="M104 565q0 283 124 446.5t356 176.5l41 246h125l-33 -254q95 -21 168 -86l28 75h107l-45 -346h-127l12 160q-60 86 -203 86q-193 0 -287 -119.5t-94 -376.5q0 -161 92 -252.5t230 -91.5q52 0 98.5 12.5t75.5 30.5t50.5 36.5t30.5 31.5l9 12l84 -57q-4 -7 -11.5 -19 t-37 -43.5t-66.5 -55.5t-101.5 -45t-139.5 -23l-33 -211h-125l27 221q-162 31 -258.5 149t-96.5 297z" />
<glyph unicode="&#xa3;" horiz-adv-x="1196" d="M47 0l21 137h90q97 57 137.5 160t54.5 262l-217 4l10 125h215q13 214 27 301q27 170 136 269.5t276 99.5q135 0 241 -92l29 73h94l-33 -297h-118l6 109q-72 72 -187 72q-108 0 -177.5 -62t-86.5 -180q-12 -72 -35 -293h525l-15 -129h-524q-17 -142 -48 -246t-91 -176h606 l41 160l115 -8l-54 -289h-1038z" />
<glyph unicode="&#xa4;" horiz-adv-x="1275" d="M84 184l272 226q-45 76 -45 178q0 174 113 293l-197 223l76 76l186 -242q109 76 246 76q123 0 209 -76l270 240l52 -76l-273 -225q47 -74 47 -179q0 -173 -112 -295l194 -221l-73 -76l-187 240q-110 -74 -241 -74t-215 78l-271 -241zM420 598q0 -104 57 -163.5t158 -59.5 q130 0 214.5 86.5t84.5 228.5q0 103 -57.5 162t-155.5 59q-132 0 -216.5 -86t-84.5 -227z" />
<glyph unicode="&#xa5;" horiz-adv-x="1294" d="M61 1217l11 114h495l-16 -114l-109 -5l265 -516l419 514l-100 4l16 117h463l-18 -123l-189 -4l-413 -508h239l-14 -96h-305l-37 -47l-20 -131h335l-12 -96h-340l-31 -199l160 -4l-18 -123h-488l11 123l163 6l31 197h-336l6 96h344l21 129l-27 49h-305l6 96h250l-268 514z " />
<glyph unicode="&#xa6;" horiz-adv-x="681" d="M125 -512l127 819h151l-127 -819h-151zM313 717l129 819h152l-129 -819h-152z" />
<glyph unicode="&#xa7;" horiz-adv-x="1144" d="M106 -141l37 305l119 8l-8 -227q92 -15 199 -15q73 0 128.5 14t87 34.5t50.5 49.5t25 54.5t6 54.5q0 45 -31 79t-80.5 55.5t-109.5 41t-120 43t-109.5 54t-80.5 81t-31 117.5q0 174 183 275q-52 62 -52 143q0 46 13.5 91t44.5 89t76 77.5t114 54t152 20.5q135 0 258 -88 l33 69h96l-37 -288h-125l6 110q-82 76 -198 76q-74 0 -127.5 -21.5t-79.5 -56.5t-37.5 -68t-11.5 -67q0 -47 32 -82.5t83.5 -58t113.5 -43t124.5 -44t114 -53.5t83.5 -79t32 -113q0 -173 -194 -279q41 -51 41 -118q0 -344 -475 -344q-115 0 -201 12t-115 24zM332 625 q0 -50 31 -87.5t85.5 -62t112 -43t128 -43t114.5 -49.5q131 60 131 197q0 47 -31.5 82t-86.5 59t-113.5 42.5t-129.5 44t-118 52.5q-123 -54 -123 -192z" />
<glyph unicode="&#xa8;" horiz-adv-x="876" d="M232.5 1319.5q5.5 37.5 33.5 62.5q31 21 64 21q34 0 59 -21q23 -25 18 -62.5t-34 -62.5q-26 -20 -66 -20q-37 0 -57 20q-23 25 -17.5 62.5zM593.5 1319.5q5.5 38.5 35.5 62.5q31 21 63 21t60 -21q21 -24 15.5 -62.5t-34.5 -62.5q-26 -20 -65 -20q-38 0 -58 20 q-22 24 -16.5 62.5z" />
<glyph unicode="&#xa9;" horiz-adv-x="1722" d="M201 557q0 367 209 584t575 217q289 0 451.5 -154.5t162.5 -419.5q0 -80 -10 -139q-50 -322 -250.5 -498t-525.5 -176q-286 0 -449 159.5t-163 426.5zM315 557q0 -228 137.5 -361t372.5 -133q269 0 438.5 153t213.5 437q10 72 10 125q0 227 -138 357.5t-376 130.5 q-307 0 -482.5 -191.5t-175.5 -517.5zM553 623q0 184 105.5 292.5t271.5 108.5q105 0 164 -68l26 60l78 -2l-33 -262h-102l8 114q-38 62 -133 62q-122 0 -196 -77.5t-74 -223.5q0 -111 64 -178.5t165 -67.5q39 0 76 10.5t62 25t44.5 29t28.5 24.5l10 11l37 -71 q-4 -5 -11.5 -14t-33.5 -31t-55.5 -39t-77 -31t-98.5 -14q-143 0 -234.5 93.5t-91.5 248.5z" />
<glyph unicode="&#xaa;" horiz-adv-x="911" d="M141 811q0 253 578 287l6 39q12 83 -26 121t-138 38q-42 0 -82.5 -8t-68 -19t-49 -22.5t-31.5 -19.5l-11 -8l-40 69q4 4 11.5 11t35.5 25.5t61 32t89.5 25t119.5 11.5q141 0 211 -49t70 -152q0 -22 -7 -62l-73 -475h-119l-8 109q-9 -14 -27 -31.5t-51.5 -41.5t-86.5 -40 t-114 -16q-124 0 -187 45.5t-63 130.5zM291 834q0 -109 166 -109q41 0 78 12.5t60 27t44 36.5t27.5 31t13.5 20l27 170q-57 -4 -100.5 -9t-95 -13.5t-88 -22.5t-68 -33t-48 -47t-16.5 -63z" />
<glyph unicode="&#xab;" horiz-adv-x="1136" d="M213 512l403 350l58 -76l-312 -276l224 -281l-78 -77zM594 512l403 350l58 -76l-312 -276l224 -281l-78 -77z" />
<glyph unicode="&#xac;" horiz-adv-x="1046" d="M154 588l18 125h797l-17 -125h-2l-49 -340h-133l51 340h-665z" />
<glyph unicode="&#xad;" horiz-adv-x="722" d="M111 506l10 125h545l-19 -125h-536z" />
<glyph unicode="&#xae;" horiz-adv-x="1452" d="M195 821q0 214 83 379t239.5 257.5t365.5 92.5q249 0 394.5 -135.5t145.5 -367.5q0 -51 -10 -119q-43 -287 -220.5 -454t-459.5 -167q-251 0 -394.5 139.5t-143.5 374.5zM307 823q0 -200 116 -312t322 -112q234 0 375 137t180 392q11 75 11 116q0 197 -117.5 308.5 t-323.5 111.5q-180 0 -308.5 -82t-191.5 -225t-63 -334zM565 602l101 649h194q122 0 183 -37t61 -118q0 -93 -52 -150t-141 -78l111 -266h-102l-107 256h-119l-39 -256h-90zM705 922h104q85 0 141 39t56 122q0 99 -154 99h-107z" />
<glyph unicode="&#xaf;" horiz-adv-x="927" d="M383 1296l12 86h436l-14 -86h-434z" />
<glyph unicode="&#xb0;" horiz-adv-x="962" d="M225 1106q0 200 120.5 327.5t316.5 127.5q150 0 233.5 -87.5t83.5 -236.5q0 -198 -119 -323.5t-317 -125.5q-152 0 -235 86t-83 232zM362 1114q0 -96 51 -152.5t146 -56.5q127 0 206 89.5t79 238.5q0 97 -52 154t-147 57q-129 0 -206 -88.5t-77 -241.5z" />
<glyph unicode="&#xb1;" horiz-adv-x="1101" d="M66 295l8 125h954l-16 -125h-946zM250 1014l8 125h344l53 342h131l-53 -342h332l-16 -125h-334l-51 -342h-134l54 342h-334z" />
<glyph unicode="&#xb2;" horiz-adv-x="948" d="M115 471l18 125q10 5 70.5 45.5t159 117.5t189.5 161t157.5 183.5t66.5 178.5q0 154 -178 154q-113 0 -207 -82l-18 -76h-109l45 264h88l6 -72q126 89 256 89q142 0 213.5 -72t71.5 -191q0 -77 -43.5 -162t-107.5 -157.5t-152 -148t-161.5 -127.5t-151.5 -101h426l32 123 l105 -8l-43 -244h-733z" />
<glyph unicode="&#xb3;" horiz-adv-x="946" d="M143 498l25 213l102 6l-6 -131q65 -21 158 -21q151 0 238.5 69.5t87.5 180.5q0 75 -49 120.5t-140 45.5q-61 0 -119 -35l-2 -2l-61 74l395 393h-362l-31 -131h-105l45 262l121 -6h525l-13 -88l-366 -358h22q129 0 207 -73t78 -192q0 -176 -133.5 -277.5t-347.5 -101.5 q-84 0 -151 13t-93 26z" />
<glyph unicode="&#xb4;" horiz-adv-x="483" d="M240 1180l237 293l158 -17l-281 -285z" />
<glyph unicode="&#xb5;" horiz-adv-x="1232" d="M45 -512l125 795q6 46 6 47l86 565l-115 6l11 123h291l-70 -444l-23 -142l-16 -100q-8 -103 50 -164t171 -61q55 0 106 10.5t85.5 25.5t60.5 30t39 25l12 11l105 680l-117 6l8 123h295l-127 -809q-4 -58 9 -76t38 -18l96 4l-6 -115q-104 -22 -204 -22q-54 0 -78 23 t-23 85h-4q-5 -5 -14.5 -13.5t-43.5 -30t-73.5 -38t-104 -30t-135.5 -13.5q-116 0 -192 45l-82 -528h-166z" />
<glyph unicode="&#xb6;" horiz-adv-x="1458" d="M186 866q0 241 151.5 353t491.5 112h664l-18 -141h-140l-184 -1190h-168l184 1190h-225l-186 -1190h-164l80 500q-486 0 -486 366z" />
<glyph unicode="&#xb7;" horiz-adv-x="563" d="M217 678q0 52 41 82q35 24 76 24q42 0 69 -24q23 -23 23 -55q0 -50 -43 -84q-36 -25 -76 -25q-42 0 -67 25q-23 23 -23 57z" />
<glyph unicode="&#xb8;" horiz-adv-x="544" d="M-49 -438l39 63q7 -7 19.5 -17t54.5 -27t88 -17q83 0 123 35t40 96q1 36 -28 61.5t-64 34.5t-64.5 15.5t-29.5 9.5l51 178h86l-37 -133q0 -2 20 -7t49.5 -15t59 -26t50 -46t20.5 -68q0 -97 -68 -155t-196 -58q-42 0 -79.5 8t-61 19t-40.5 22t-25 19z" />
<glyph unicode="&#xb9;" horiz-adv-x="948" d="M256 471l8 113l223 10l123 797l-245 -113l-29 108l319 150h127l-145 -948l190 -4l-22 -113h-549z" />
<glyph unicode="&#xba;" horiz-adv-x="987" d="M174 946q0 204 121.5 325.5t351.5 121.5q174 0 264 -83t90 -229q0 -204 -123.5 -325t-347.5 -121q-178 0 -267 81.5t-89 229.5zM326 942q0 -103 54.5 -159t162.5 -56q150 0 229.5 93t79.5 265q0 101 -55 156t-164 55q-151 0 -229 -90.5t-78 -263.5z" />
<glyph unicode="&#xbb;" horiz-adv-x="1132" d="M113 227l311 275l-223 280l78 80l292 -362l-399 -348zM498 227l311 275l-223 280l78 80l292 -362l-399 -348z" />
<glyph unicode="&#xbc;" horiz-adv-x="1847" d="M256 471l8 113l223 10l123 797l-245 -113l-29 108l319 150h127l-145 -948l190 -4l-22 -113h-549zM580 49l890 1149l95 -55l-891 -1151zM879 -250l4 92q94 134 200.5 323t186.5 374l139 -17q-146 -328 -362 -657h358l53 330l47 172h127l-78 -502h127l-14 -107l-131 -8 l-29 -182l92 -6l-16 -105h-340l8 105l105 4l30 184h-507z" />
<glyph unicode="&#xbd;" horiz-adv-x="1976" d="M256 471l8 113l223 10l123 797l-245 -113l-29 108l319 150h127l-145 -948l190 -4l-22 -113h-549zM580 49l890 1149l95 -55l-891 -1151zM983 -543l18 125q10 5 70.5 45.5t159.5 117.5t190 161t157.5 183.5t66.5 178.5q0 154 -179 154q-112 0 -206 -82l-19 -76h-108l45 264 h88l6 -71q124 88 256 88q142 0 213 -71.5t71 -190.5q0 -77 -43.5 -162t-107.5 -157.5t-152.5 -148t-161 -127.5t-151.5 -102h426l33 123l104 -8l-43 -244h-733z" />
<glyph unicode="&#xbe;" horiz-adv-x="1832" d="M143 498l25 213l102 6l-6 -131q65 -21 158 -21q151 0 238.5 69.5t87.5 180.5q0 75 -49 120.5t-140 45.5q-61 0 -119 -35l-2 -2l-61 74l395 393h-362l-31 -131h-105l45 262l121 -6h525l-13 -88l-366 -358h22q129 0 207 -73t78 -192q0 -176 -133.5 -277.5t-347.5 -101.5 q-84 0 -151 13t-93 26zM565 49l891 1149l94 -55l-891 -1151zM864 -250l4 92q94 134 200.5 323t186.5 374l140 -17q-144 -324 -363 -657h359l53 330l47 172h127l-78 -502h127l-14 -107l-131 -8l-29 -182l92 -6l-16 -105h-340l8 105l104 4l31 184h-508z" />
<glyph unicode="&#xbf;" horiz-adv-x="964" d="M6 -250q0 77 22 138.5t58.5 103t83.5 75.5t98.5 62t103 56.5t96.5 64t79 79.5t51 109t12 146l97 8q4 -29 4 -82q0 -98 -29.5 -172.5t-77 -120.5t-104.5 -82.5t-114.5 -68.5t-105 -67.5t-77 -90.5t-29.5 -127q0 -81 64 -136t204 -55q64 0 154 21l45 207l117 -8l-53 -312 q-11 -4 -31.5 -10.5t-91.5 -17.5t-150 -11q-208 0 -317 81.5t-109 209.5zM604 934q0 52 41 82q35 24 76 24q43 0 70 -24q22 -22 22 -55q0 -50 -43 -84q-36 -25 -76 -25q-42 0 -67 25q-23 23 -23 57z" />
<glyph unicode="&#xc0;" d="M-78 0l10 123l164 6l647 1202h228l274 -1210l156 -6l-17 -115h-464l14 98l137 4l-74 308h-587l-164 -304l139 -4l-14 -102h-449zM471 522h502l-146 670zM643 1733l160 18l149 -293l-118 -10z" />
<glyph unicode="&#xc1;" d="M-78 0l10 123l164 6l647 1202h228l274 -1210l156 -6l-17 -115h-464l14 98l137 4l-74 308h-587l-164 -304l139 -4l-14 -102h-449zM471 522h502l-146 670zM788 1456l238 293l158 -16l-281 -285z" />
<glyph unicode="&#xc2;" d="M-78 0l10 123l164 6l647 1202h228l274 -1210l156 -6l-17 -115h-464l14 98l137 4l-74 308h-587l-164 -304l139 -4l-14 -102h-449zM471 522h502l-146 670zM578 1591l303 207h90l239 -207l-67 -98l-234 195l-293 -195z" />
<glyph unicode="&#xc3;" d="M-78 0l10 123l164 6l647 1202h228l274 -1210l156 -6l-17 -115h-464l14 98l137 4l-74 308h-587l-164 -304l139 -4l-14 -102h-449zM471 522h502l-146 670zM547 1618q2 4 7 10.5t23.5 23t40 29t57.5 23t77 10.5q63 0 126 -26t120.5 -52t107.5 -26q39 0 74 11t50 21l15 11 l8 -86q-2 -3 -5 -8.5t-17.5 -19t-32.5 -23.5t-50.5 -18.5t-70.5 -8.5q-58 0 -120 25t-121.5 50t-112.5 25q-42 0 -84.5 -16.5t-64.5 -33.5l-21 -17z" />
<glyph unicode="&#xc4;" d="M-78 0l10 123l164 6l647 1202h228l274 -1210l156 -6l-17 -115h-464l14 98l137 4l-74 308h-587l-164 -304l139 -4l-14 -102h-449zM471 522h502l-146 670zM628 1596.5q6 37.5 34 62.5q30 20 63 20q36 0 59 -20q23 -25 18 -62.5t-34 -62.5q-27 -21 -66 -21q-36 0 -57 21 q-23 25 -17 62.5zM989 1596.5q5 38.5 35 62.5q30 20 63 20t60 -20q21 -24 15.5 -62.5t-34.5 -62.5q-27 -21 -65 -21q-36 0 -57 21q-22 24 -17 62.5z" />
<glyph unicode="&#xc5;" d="M-78 0l10 123l164 6l647 1202h228l274 -1210l156 -6l-17 -115h-464l14 98l137 4l-74 308h-587l-164 -304l139 -4l-14 -102h-449zM471 522h502l-146 670zM700 1657q0 106 71 176t171 70q78 0 128 -51.5t50 -131.5q0 -104 -70 -172.5t-171 -68.5q-81 0 -130 49t-49 129z M778 1667q0 -52 31.5 -83.5t79.5 -31.5q63 0 107 45.5t44 114.5q0 52 -30 84.5t-76 32.5q-63 0 -109.5 -46t-46.5 -116z" />
<glyph unicode="&#xc6;" horiz-adv-x="1861" d="M-195 0l11 123l194 6l869 1079l-164 6l8 117h1001l150 8l-39 -305h-135l12 164h-516l-72 -463l602 2l-20 -129h-602l-74 -475h576l43 184l125 -8l-54 -309h-1034l4 92l164 4l49 314h-495l-246 -312l121 -4l-13 -94h-465zM496 522h424l106 676h-14z" />
<glyph unicode="&#xc7;" horiz-adv-x="1349" d="M143 573q0 172 56 319t153.5 249t232 159.5t289.5 57.5q181 0 324 -113l39 94h104l-61 -460h-129l25 247q-127 93 -285 93q-119 0 -222.5 -42.5t-181.5 -122t-123 -204t-45 -279.5q0 -215 129 -337.5t332 -122.5q79 0 152.5 20t122 48.5t86 57t54.5 48.5l17 20l70 -92 q-7 -10 -20 -26t-60.5 -58t-103 -74t-147 -58t-191.5 -26q-33 0 -47 2l-31 -112q0 -2 20 -7t49.5 -15t59 -26t50 -46t20.5 -68q0 -97 -68.5 -155t-196.5 -58q-42 0 -79.5 8t-61 19t-40.5 22t-25 19l-7 8l39 63q7 -7 19.5 -17t54.5 -27t88 -17q83 0 123.5 35t40.5 96 q1 36 -28 61.5t-64 34.5t-64.5 15.5t-29.5 9.5l47 168q-224 36 -355 192t-131 397z" />
<glyph unicode="&#xc8;" horiz-adv-x="1220" d="M33 0l10 123l164 6l168 1081l-162 7l8 114h850l150 8l-19 -141l-20 -164h-135l12 164h-514l-72 -463l600 2l-18 -129h-602l-74 -475h573l45 184l125 -8l-55 -309h-1034zM596 1733l160 18l149 -293l-119 -10z" />
<glyph unicode="&#xc9;" horiz-adv-x="1220" d="M33 0l10 123l164 6l168 1081l-162 7l8 114h850l150 8l-19 -141l-20 -164h-135l12 164h-514l-72 -463l600 2l-18 -129h-602l-74 -475h573l45 184l125 -8l-55 -309h-1034zM737 1456l238 293l158 -16l-281 -285z" />
<glyph unicode="&#xca;" horiz-adv-x="1220" d="M33 0l10 123l164 6l168 1081l-162 7l8 114h850l150 8l-19 -141l-20 -164h-135l12 164h-514l-72 -463l600 2l-18 -129h-602l-74 -475h573l45 184l125 -8l-55 -309h-1034zM528 1591l303 207h91l239 -207l-67 -98l-234 195l-293 -195z" />
<glyph unicode="&#xcb;" horiz-adv-x="1220" d="M33 0l10 123l164 6l168 1081l-162 7l8 114h850l150 8l-19 -141l-20 -164h-135l12 164h-514l-72 -463l600 2l-18 -129h-602l-74 -475h573l45 184l125 -8l-55 -309h-1034zM576.5 1596.5q5.5 37.5 33.5 62.5q30 20 64 20q36 0 59 -20q23 -25 18 -62.5t-34 -62.5 q-27 -21 -66 -21q-36 0 -57 21q-23 25 -17.5 62.5zM937.5 1596.5q5.5 38.5 35.5 62.5q30 20 63 20t60 -20q21 -24 15.5 -62.5t-34.5 -62.5q-27 -21 -65 -21q-37 0 -58 21q-22 24 -16.5 62.5z" />
<glyph unicode="&#xcc;" horiz-adv-x="669" d="M33 0l10 123l164 6l168 1081l-162 7l8 114h502l-18 -123l-160 -6l-168 -1081l160 -6l-17 -115h-487zM264 1733l160 18l149 -293l-118 -10z" />
<glyph unicode="&#xcd;" horiz-adv-x="669" d="M33 0l10 123l164 6l168 1081l-162 7l8 114h502l-18 -123l-160 -6l-168 -1081l160 -6l-17 -115h-487zM408 1456l237 293l158 -16l-281 -285z" />
<glyph unicode="&#xce;" horiz-adv-x="669" d="M33 0l10 123l164 6l168 1081l-162 7l8 114h502l-18 -123l-160 -6l-168 -1081l160 -6l-17 -115h-487zM197 1591l303 207h90l239 -207l-67 -98l-234 195l-292 -195z" />
<glyph unicode="&#xcf;" horiz-adv-x="669" d="M33 0l10 123l164 6l168 1081l-162 7l8 114h502l-18 -123l-160 -6l-168 -1081l160 -6l-17 -115h-487zM247 1596.5q6 37.5 34 62.5q30 20 63 20q36 0 59 -20q23 -25 18 -62.5t-34 -62.5q-27 -21 -65 -21q-37 0 -58 21q-23 25 -17 62.5zM608 1596.5q5 38.5 35 62.5 q30 20 64 20q32 0 59 -20q21 -24 16 -62.5t-34 -62.5q-27 -21 -66 -21q-36 0 -57 21q-22 24 -17 62.5z" />
<glyph unicode="&#xd0;" horiz-adv-x="1521" d="M33 0l10 123l164 6l74 477h-191l8 111h199l78 493l-162 7l8 114h627q294 0 457 -134t163 -394q0 -370 -215 -586.5t-594 -216.5h-626zM379 139h301q282 0 446 170.5t164 485.5q0 198 -121 297.5t-340 99.5h-286l-74 -475h428l-16 -111h-430z" />
<glyph unicode="&#xd1;" horiz-adv-x="1599" d="M33 0l10 123l164 6l168 1081l-162 7l8 114h352l609 -1116l2 49l147 942l-162 8l9 117h491l-18 -123l-158 -6l-188 -1214h-179l-614 1099h-2v-63l-145 -899l161 -8l-16 -117h-477zM653 1618q2 4 7 10.5t23.5 23t40 29t57.5 23t77 10.5q63 0 126 -26t120.5 -52t107.5 -26 q39 0 74 11t50 21l16 11l8 -86q-2 -3 -5 -8.5t-17.5 -19t-32.5 -23.5t-50.5 -18.5t-70.5 -8.5q-58 0 -120.5 25t-122 50t-112.5 25q-42 0 -84.5 -16.5t-64.5 -33.5l-21 -17z" />
<glyph unicode="&#xd2;" horiz-adv-x="1544" d="M143 567q0 365 209 578t566 213q274 0 423.5 -139t149.5 -390q0 -69 -12 -145q-34 -212 -137 -372.5t-268.5 -250.5t-371.5 -90q-264 0 -411.5 163.5t-147.5 432.5zM319 573q0 -209 106.5 -335.5t297.5 -126.5q227 0 382 156.5t195 416.5q11 62 11 129 q0 195 -107.5 300.5t-304.5 105.5q-267 0 -423.5 -172t-156.5 -474zM705 1733l159 18l150 -293l-119 -10z" />
<glyph unicode="&#xd3;" horiz-adv-x="1544" d="M143 567q0 365 209 578t566 213q274 0 423.5 -139t149.5 -390q0 -69 -12 -145q-34 -212 -137 -372.5t-268.5 -250.5t-371.5 -90q-264 0 -411.5 163.5t-147.5 432.5zM319 573q0 -209 106.5 -335.5t297.5 -126.5q227 0 382 156.5t195 416.5q11 62 11 129 q0 195 -107.5 300.5t-304.5 105.5q-267 0 -423.5 -172t-156.5 -474zM846 1456l237 293l158 -16l-280 -285z" />
<glyph unicode="&#xd4;" horiz-adv-x="1544" d="M143 567q0 365 209 578t566 213q274 0 423.5 -139t149.5 -390q0 -69 -12 -145q-34 -212 -137 -372.5t-268.5 -250.5t-371.5 -90q-264 0 -411.5 163.5t-147.5 432.5zM319 573q0 -209 106.5 -335.5t297.5 -126.5q227 0 382 156.5t195 416.5q11 62 11 129 q0 195 -107.5 300.5t-304.5 105.5q-267 0 -423.5 -172t-156.5 -474zM635 1591l303 207h90l240 -207l-68 -98l-233 195l-293 -195z" />
<glyph unicode="&#xd5;" horiz-adv-x="1544" d="M143 567q0 365 209 578t566 213q274 0 423.5 -139t149.5 -390q0 -69 -12 -145q-34 -212 -137 -372.5t-268.5 -250.5t-371.5 -90q-264 0 -411.5 163.5t-147.5 432.5zM319 573q0 -209 106.5 -335.5t297.5 -126.5q227 0 382 156.5t195 416.5q11 62 11 129 q0 195 -107.5 300.5t-304.5 105.5q-267 0 -423.5 -172t-156.5 -474zM606 1618q2 4 7 10.5t23.5 23t40 29t57.5 23t77 10.5q63 0 126 -26t120.5 -52t107.5 -26q39 0 74 11t51 21l15 11l8 -86q-2 -3 -5 -8.5t-17.5 -19t-32.5 -23.5t-50.5 -18.5t-70.5 -8.5q-58 0 -120.5 25 t-122 50t-112.5 25q-42 0 -84.5 -16.5t-63.5 -33.5l-22 -17z" />
<glyph unicode="&#xd6;" horiz-adv-x="1544" d="M143 567q0 365 209 578t566 213q274 0 423.5 -139t149.5 -390q0 -69 -12 -145q-34 -212 -137 -372.5t-268.5 -250.5t-371.5 -90q-264 0 -411.5 163.5t-147.5 432.5zM319 573q0 -209 106.5 -335.5t297.5 -126.5q227 0 382 156.5t195 416.5q11 62 11 129 q0 195 -107.5 300.5t-304.5 105.5q-267 0 -423.5 -172t-156.5 -474zM687.5 1596.5q5.5 37.5 33.5 62.5q30 20 63 20q37 0 60 -20q23 -25 17.5 -62.5t-34.5 -62.5q-27 -21 -65 -21q-36 0 -57 21q-23 25 -17.5 62.5zM1048 1596.5q5 38.5 35 62.5q30 20 64 20q32 0 59 -20 q21 -24 16 -62.5t-34 -62.5q-27 -21 -66 -21q-36 0 -57 21q-22 24 -17 62.5z" />
<glyph unicode="&#xd7;" horiz-adv-x="823" d="M84 418l272 237l-198 240l106 98l203 -241l276 241l78 -98l-274 -242l198 -235l-106 -101l-201 240l-272 -240z" />
<glyph unicode="&#xd8;" horiz-adv-x="1544" d="M143 567q0 365 209 578t566 213q149 0 270 -45l112 178l74 -12l-123 -195q117 -65 178.5 -180.5t61.5 -274.5q0 -69 -12 -145q-34 -212 -137 -372.5t-268.5 -250.5t-371.5 -90q-115 0 -221 37l-123 -215l-73 12q85 151 133 230q-134 71 -204.5 209t-70.5 323zM319 573 q0 -136 46 -239.5t133 -161.5l606 1008q-89 39 -205 39q-267 0 -423.5 -172t-156.5 -474zM559 139q76 -28 164 -28q227 0 382 156.5t195 416.5q11 62 11 129q0 226 -146 332z" />
<glyph unicode="&#xd9;" horiz-adv-x="1505" d="M176 1217l8 114h500l-14 -114l-160 -7l-113 -721q-6 -40 -6 -75q0 -132 81 -212.5t239 -80.5q182 0 293 102.5t137 265.5l110 717l-161 8l10 117h495l-16 -114l-160 -7l-116 -755q-13 -79 -43.5 -149.5t-82.5 -132t-121 -106.5t-163.5 -70.5t-204.5 -25.5 q-122 0 -214.5 30.5t-148.5 85.5t-84 125.5t-28 154.5q0 26 8 88l117 755zM719 1733l160 18l149 -293l-119 -10z" />
<glyph unicode="&#xda;" horiz-adv-x="1505" d="M176 1217l8 114h500l-14 -114l-160 -7l-113 -721q-6 -40 -6 -75q0 -132 81 -212.5t239 -80.5q182 0 293 102.5t137 265.5l110 717l-161 8l10 117h495l-16 -114l-160 -7l-116 -755q-13 -79 -43.5 -149.5t-82.5 -132t-121 -106.5t-163.5 -70.5t-204.5 -25.5 q-122 0 -214.5 30.5t-148.5 85.5t-84 125.5t-28 154.5q0 26 8 88l117 755zM791 1456l237 293l158 -16l-281 -285z" />
<glyph unicode="&#xdb;" horiz-adv-x="1505" d="M176 1217l8 114h500l-14 -114l-160 -7l-113 -721q-6 -40 -6 -75q0 -132 81 -212.5t239 -80.5q182 0 293 102.5t137 265.5l110 717l-161 8l10 117h495l-16 -114l-160 -7l-116 -755q-13 -79 -43.5 -149.5t-82.5 -132t-121 -106.5t-163.5 -70.5t-204.5 -25.5 q-122 0 -214.5 30.5t-148.5 85.5t-84 125.5t-28 154.5q0 26 8 88l117 755zM610 1591l303 207h91l239 -207l-67 -98l-234 195l-293 -195z" />
<glyph unicode="&#xdc;" horiz-adv-x="1505" d="M176 1217l8 114h500l-14 -114l-160 -7l-113 -721q-6 -40 -6 -75q0 -132 81 -212.5t239 -80.5q182 0 293 102.5t137 265.5l110 717l-161 8l10 117h495l-16 -114l-160 -7l-116 -755q-13 -79 -43.5 -149.5t-82.5 -132t-121 -106.5t-163.5 -70.5t-204.5 -25.5 q-122 0 -214.5 30.5t-148.5 85.5t-84 125.5t-28 154.5q0 26 8 88l117 755zM660.5 1596.5q5.5 37.5 33.5 62.5q30 20 64 20q36 0 59 -20q23 -25 18 -62.5t-34 -62.5q-27 -21 -66 -21q-36 0 -57 21q-23 25 -17.5 62.5zM1021.5 1596.5q5.5 38.5 35.5 62.5q30 20 63 20t60 -20 q21 -24 15.5 -62.5t-34.5 -62.5q-27 -21 -65 -21q-37 0 -58 21q-22 24 -16.5 62.5z" />
<glyph unicode="&#xdd;" horiz-adv-x="1294" d="M61 1217l11 114h495l-16 -114l-109 -5l265 -516l419 514l-100 4l16 117h463l-18 -123l-189 -4l-530 -651l-68 -426l160 -4l-18 -123h-488l11 123l163 6l66 422l-344 659zM764 1456l237 293l158 -16l-280 -285z" />
<glyph unicode="&#xde;" horiz-adv-x="1196" d="M33 0l10 123l164 6l168 1081l-162 7l8 114h332l-37 -233h201q210 0 323 -85.5t113 -260.5q0 -113 -34 -205t-90.5 -153t-131.5 -103t-154 -60t-161 -18h-203l-33 -213h-313zM399 342h185q82 0 151.5 23t125.5 68.5t88 122.5t32 177q0 232 -297 232h-188z" />
<glyph unicode="&#xdf;" horiz-adv-x="1280" d="M-264 -504l61 131q45 -20 115 -20q72 0 137 84t90 237l187 1213q66 413 491 413q172 0 261 -58t89 -185q0 -217 -249 -328q305 -74 305 -387q0 -290 -144.5 -457.5t-390.5 -167.5q-61 0 -110 7t-76 16.5t-45.5 19t-24.5 16.5l-6 7l39 102q6 -5 18 -12t62 -19t114 -12 q179 0 286.5 131t107.5 363q0 159 -95 230t-303 71v2l15 123q7 0 19 1.5t46.5 8.5t65.5 17t69 30.5t65.5 46.5t46.5 67.5t19 90.5q0 81 -52 116.5t-154 35.5q-255 0 -303 -289l-189 -1213q-36 -230 -150 -349.5t-243 -119.5q-63 0 -106.5 9.5t-55.5 18.5z" />
<glyph unicode="&#xe0;" horiz-adv-x="1224" d="M92 412q0 139 39 256t111.5 203t183.5 134t248 48q61 0 113 -11t83.5 -26t54 -30.5t31.5 -26.5l9 -11l39 76h129l-117 -766q-6 -41 -6 -68q0 -29 7.5 -45.5t16.5 -20t23 -3.5l98 4l-8 -115q-105 -22 -203 -22q-61 0 -86 30t-16 107q-10 -12 -18.5 -21.5t-43 -37 t-71.5 -45.5t-98 -34t-128 -16q-179 0 -285 120.5t-106 320.5zM260 410q0 -149 77 -230.5t214 -81.5q65 0 123 20.5t96 51.5t55 48.5t27 31.5l90 581q-3 5 -11 14t-28.5 24.5t-46 27.5t-66.5 21.5t-88 9.5q-223 0 -332.5 -134t-109.5 -384zM467 1456l160 19l149 -293 l-119 -11z" />
<glyph unicode="&#xe1;" horiz-adv-x="1224" d="M92 412q0 139 39 256t111.5 203t183.5 134t248 48q61 0 113 -11t83.5 -26t54 -30.5t31.5 -26.5l9 -11l39 76h129l-117 -766q-6 -41 -6 -68q0 -29 7.5 -45.5t16.5 -20t23 -3.5l98 4l-8 -115q-105 -22 -203 -22q-61 0 -86 30t-16 107q-10 -12 -18.5 -21.5t-43 -37 t-71.5 -45.5t-98 -34t-128 -16q-179 0 -285 120.5t-106 320.5zM260 410q0 -149 77 -230.5t214 -81.5q65 0 123 20.5t96 51.5t55 48.5t27 31.5l90 581q-3 5 -11 14t-28.5 24.5t-46 27.5t-66.5 21.5t-88 9.5q-223 0 -332.5 -134t-109.5 -384zM612 1180l238 293l158 -17 l-281 -285z" />
<glyph unicode="&#xe2;" horiz-adv-x="1224" d="M92 412q0 139 39 256t111.5 203t183.5 134t248 48q61 0 113 -11t83.5 -26t54 -30.5t31.5 -26.5l9 -11l39 76h129l-117 -766q-6 -41 -6 -68q0 -29 7.5 -45.5t16.5 -20t23 -3.5l98 4l-8 -115q-105 -22 -203 -22q-61 0 -86 30t-16 107q-10 -12 -18.5 -21.5t-43 -37 t-71.5 -45.5t-98 -34t-128 -16q-179 0 -285 120.5t-106 320.5zM260 410q0 -149 77 -230.5t214 -81.5q65 0 123 20.5t96 51.5t55 48.5t27 31.5l90 581q-3 5 -11 14t-28.5 24.5t-46 27.5t-66.5 21.5t-88 9.5q-223 0 -332.5 -134t-109.5 -384zM399 1315l303 207h91l239 -207 l-67 -98l-234 194l-293 -194z" />
<glyph unicode="&#xe3;" horiz-adv-x="1224" d="M92 412q0 139 39 256t111.5 203t183.5 134t248 48q61 0 113 -11t83.5 -26t54 -30.5t31.5 -26.5l9 -11l39 76h129l-117 -766q-6 -41 -6 -68q0 -29 7.5 -45.5t16.5 -20t23 -3.5l98 4l-8 -115q-105 -22 -203 -22q-61 0 -86 30t-16 107q-10 -12 -18.5 -21.5t-43 -37 t-71.5 -45.5t-98 -34t-128 -16q-179 0 -285 120.5t-106 320.5zM260 410q0 -149 77 -230.5t214 -81.5q65 0 123 20.5t96 51.5t55 48.5t27 31.5l90 581q-3 5 -11 14t-28.5 24.5t-46 27.5t-66.5 21.5t-88 9.5q-223 0 -332.5 -134t-109.5 -384zM371 1341q2 4 7 10.5t23 23 t39.5 29.5t57.5 23.5t77 10.5q50 0 101.5 -16.5t87 -36t81 -36t85.5 -16.5q39 0 74 10.5t50 21.5l15 11l8 -86q-2 -3 -5 -8.5t-17.5 -19t-32.5 -23.5t-50.5 -18.5t-70.5 -8.5q-46 0 -96 16t-85.5 34.5t-83 34.5t-89.5 16t-84.5 -17t-64.5 -34l-21 -17z" />
<glyph unicode="&#xe4;" horiz-adv-x="1224" d="M92 412q0 139 39 256t111.5 203t183.5 134t248 48q61 0 113 -11t83.5 -26t54 -30.5t31.5 -26.5l9 -11l39 76h129l-117 -766q-6 -41 -6 -68q0 -29 7.5 -45.5t16.5 -20t23 -3.5l98 4l-8 -115q-105 -22 -203 -22q-61 0 -86 30t-16 107q-10 -12 -18.5 -21.5t-43 -37 t-71.5 -45.5t-98 -34t-128 -16q-179 0 -285 120.5t-106 320.5zM260 410q0 -149 77 -230.5t214 -81.5q65 0 123 20.5t96 51.5t55 48.5t27 31.5l90 581q-3 5 -11 14t-28.5 24.5t-46 27.5t-66.5 21.5t-88 9.5q-223 0 -332.5 -134t-109.5 -384zM449.5 1319.5q5.5 37.5 33.5 62.5 q31 21 64 21q35 0 59 -21q23 -25 18 -62.5t-34 -62.5q-26 -20 -66 -20q-37 0 -57 20q-23 25 -17.5 62.5zM810.5 1319.5q5.5 38.5 35.5 62.5q32 21 63 21q32 0 60 -21q21 -24 15.5 -62.5t-34.5 -62.5q-26 -20 -65 -20q-38 0 -58 20q-22 24 -16.5 62.5z" />
<glyph unicode="&#xe5;" horiz-adv-x="1224" d="M92 412q0 139 39 256t111.5 203t183.5 134t248 48q61 0 113 -11t83.5 -26t54 -30.5t31.5 -26.5l9 -11l39 76h129l-117 -766q-6 -41 -6 -68q0 -29 7.5 -45.5t16.5 -20t23 -3.5l98 4l-8 -115q-105 -22 -203 -22q-61 0 -86 30t-16 107q-10 -12 -18.5 -21.5t-43 -37 t-71.5 -45.5t-98 -34t-128 -16q-179 0 -285 120.5t-106 320.5zM260 410q0 -149 77 -230.5t214 -81.5q65 0 123 20.5t96 51.5t55 48.5t27 31.5l90 581q-3 5 -11 14t-28.5 24.5t-46 27.5t-66.5 21.5t-88 9.5q-223 0 -332.5 -134t-109.5 -384zM522 1380q0 106 71 176t171 70 q78 0 128 -51t50 -131q0 -104 -70.5 -173t-171.5 -69q-81 0 -129.5 49t-48.5 129zM600 1391q0 -52 31.5 -83.5t79.5 -31.5q63 0 107 45.5t44 114.5q0 52 -30 84t-76 32q-63 0 -109.5 -45.5t-46.5 -115.5z" />
<glyph unicode="&#xe6;" horiz-adv-x="1708" d="M47 233q0 67 25.5 122t67.5 91.5t101.5 64.5t121.5 44t134 26.5t132.5 16t122.5 9.5h5.5t4.5 0.5t5.5 0.5h4.5l10 70q9 70 9 84q0 89 -46.5 128.5t-148.5 39.5q-132 0 -236 -96l-20 -97h-117l47 295h97l4 -63q129 84 262 84q238 0 280 -185q164 185 414 185 q164 0 264.5 -79.5t100.5 -209.5q0 -177 -177.5 -242t-605.5 -65v-43q0 -151 88 -234.5t226 -83.5q60 0 113 14t86 33.5t58 39.5t36 34l10 14l86 -61q-4 -8 -13.5 -21.5t-44.5 -48t-78 -60.5t-117 -47.5t-159 -21.5q-152 0 -262.5 66t-159.5 190q-25 -50 -58.5 -92 t-82 -80.5t-116.5 -61t-148 -22.5q-154 0 -240 71.5t-86 190.5zM219 258q0 -79 53.5 -125.5t157.5 -46.5q58 0 108 24t83 59t60.5 82t42 84t24.5 75v2q0 46 6 92q-72 -3 -115.5 -6t-107 -10t-102 -17.5t-83 -28.5t-69.5 -42.5t-41.5 -60.5t-16.5 -81zM922 559 q349 0 485.5 41t136.5 156q0 79 -60.5 127.5t-172.5 48.5q-152 0 -255 -100t-134 -273z" />
<glyph unicode="&#xe7;" horiz-adv-x="989" d="M92 428q0 296 135.5 460.5t386.5 164.5q152 0 258 -97l29 76h107l-45 -346h-127l12 160q-60 86 -203 86q-193 0 -287 -119.5t-94 -376.5q0 -161 92 -252.5t230 -91.5q52 0 98.5 12.5t75.5 31t50.5 36.5t30.5 30l9 13l84 -57q-4 -8 -12 -20.5t-39 -44.5t-70 -57 t-107.5 -45t-148.5 -20h-20l-31 -110q0 -2 20 -7t49.5 -15t59 -26t50 -46t20.5 -68q0 -97 -68.5 -155t-196.5 -58q-42 0 -79.5 8t-61 19t-40.5 22t-25 19l-7 8l39 63q7 -7 19.5 -17t54.5 -27t88 -17q83 0 123.5 35t40.5 96q1 36 -28 61.5t-64 34.5t-64.5 15.5t-29.5 9.5 l47 166q-165 30 -263 147.5t-98 298.5z" />
<glyph unicode="&#xe8;" horiz-adv-x="1050" d="M92 412q0 176 73 322t206.5 232.5t300.5 86.5q164 0 264 -79.5t100 -209.5q0 -177 -177 -242t-605 -65v-43q0 -151 87.5 -234.5t225.5 -83.5q60 0 113 14t86 33.5t58 39.5t36 34l10 14l86 -61q-4 -8 -13.5 -21.5t-44.5 -48t-77.5 -60.5t-116.5 -47.5t-159 -21.5 q-203 0 -328 116t-125 325zM266 559q349 0 486 41t137 156q0 79 -61 127.5t-173 48.5q-152 0 -255 -100t-134 -273zM463 1456l160 19l149 -293l-119 -11z" />
<glyph unicode="&#xe9;" horiz-adv-x="1050" d="M92 412q0 176 73 322t206.5 232.5t300.5 86.5q164 0 264 -79.5t100 -209.5q0 -177 -177 -242t-605 -65v-43q0 -151 87.5 -234.5t225.5 -83.5q60 0 113 14t86 33.5t58 39.5t36 34l10 14l86 -61q-4 -8 -13.5 -21.5t-44.5 -48t-77.5 -60.5t-116.5 -47.5t-159 -21.5 q-203 0 -328 116t-125 325zM266 559q349 0 486 41t137 156q0 79 -61 127.5t-173 48.5q-152 0 -255 -100t-134 -273zM606 1180l238 293l157 -17l-280 -285z" />
<glyph unicode="&#xea;" horiz-adv-x="1050" d="M92 412q0 176 73 322t206.5 232.5t300.5 86.5q164 0 264 -79.5t100 -209.5q0 -177 -177 -242t-605 -65v-43q0 -151 87.5 -234.5t225.5 -83.5q60 0 113 14t86 33.5t58 39.5t36 34l10 14l86 -61q-4 -8 -13.5 -21.5t-44.5 -48t-77.5 -60.5t-116.5 -47.5t-159 -21.5 q-203 0 -328 116t-125 325zM266 559q349 0 486 41t137 156q0 79 -61 127.5t-173 48.5q-152 0 -255 -100t-134 -273zM397 1315l303 207h91l239 -207l-67 -98l-234 194l-293 -194z" />
<glyph unicode="&#xeb;" horiz-adv-x="1050" d="M92 412q0 176 73 322t206.5 232.5t300.5 86.5q164 0 264 -79.5t100 -209.5q0 -177 -177 -242t-605 -65v-43q0 -151 87.5 -234.5t225.5 -83.5q60 0 113 14t86 33.5t58 39.5t36 34l10 14l86 -61q-4 -8 -13.5 -21.5t-44.5 -48t-77.5 -60.5t-116.5 -47.5t-159 -21.5 q-203 0 -328 116t-125 325zM266 559q349 0 486 41t137 156q0 79 -61 127.5t-173 48.5q-152 0 -255 -100t-134 -273zM443.5 1319.5q5.5 37.5 33.5 62.5q31 21 64 21q35 0 59 -21q23 -25 18 -62.5t-34 -62.5q-26 -20 -66 -20q-37 0 -57 20q-23 25 -17.5 62.5zM804.5 1319.5 q5.5 38.5 35.5 62.5q32 21 63 21q32 0 60 -21q21 -24 15.5 -62.5t-34.5 -62.5q-26 -20 -65 -20q-38 0 -58 20q-22 24 -16.5 62.5z" />
<glyph unicode="&#xec;" horiz-adv-x="530" d="M147 102q0 31 5 60l114 733l-116 6l8 123h293l-127 -817q-1 -53 12 -69.5t37 -16.5l98 4l-8 -115q-105 -22 -203 -22q-56 0 -84.5 25t-28.5 89zM162 1456l160 19l149 -293l-119 -11z" />
<glyph unicode="&#xed;" horiz-adv-x="530" d="M147 102q0 31 5 60l114 733l-116 6l8 123h293l-127 -817q-1 -53 12 -69.5t37 -16.5l98 4l-8 -115q-105 -22 -203 -22q-56 0 -84.5 25t-28.5 89zM305 1180l238 293l157 -17l-280 -285z" />
<glyph unicode="&#xee;" horiz-adv-x="530" d="M94 1315l303 207h90l240 -207l-68 -98l-233 194l-293 -194zM147 102q0 31 5 60l114 733l-116 6l8 123h293l-127 -817q-1 -53 12 -69.5t37 -16.5l98 4l-8 -115q-105 -22 -203 -22q-56 0 -84.5 25t-28.5 89z" />
<glyph unicode="&#xef;" horiz-adv-x="530" d="M142.5 1319.5q5.5 37.5 33.5 62.5q31 21 64 21q34 0 59 -21q23 -25 18 -62.5t-34 -62.5q-26 -20 -66 -20q-37 0 -57 20q-23 25 -17.5 62.5zM147 102q0 31 5 60l114 733l-116 6l8 123h293l-127 -817q-1 -53 12 -69.5t37 -16.5l98 4l-8 -115q-105 -22 -203 -22 q-56 0 -84.5 25t-28.5 89zM503.5 1319.5q5.5 38.5 35.5 62.5q31 21 63 21t60 -21q21 -24 15.5 -62.5t-34.5 -62.5q-26 -20 -65 -20q-38 0 -58 20q-22 24 -16.5 62.5z" />
<glyph unicode="&#xf0;" horiz-adv-x="1130" d="M94 467q15 274 172.5 430t392.5 156q96 0 186 -37.5t152 -106.5q-16 247 -182 416l-270 -129l-23 61l240 115q-50 42 -107 80l80 78q91 -54 142 -100l192 92l23 -64l-164 -78q200 -210 200 -563q0 -107 -18 -233h-2q-31 -278 -192 -445.5t-390 -167.5q-209 0 -329 138 t-103 358zM258 424q0 -146 77.5 -239t205.5 -93q169 0 286 153t117 398q0 131 -79.5 210t-211.5 79q-83 0 -153.5 -32t-125 -93.5t-85.5 -159.5t-31 -223z" />
<glyph unicode="&#xf1;" horiz-adv-x="1218" d="M127 0l137 895l-117 6l11 123h272l2 -90q13 13 36.5 29t67.5 38.5t113 37t148 14.5q317 0 317 -246q0 -35 -6 -72l-82 -526q-1 -54 12 -71t37 -17l99 4l-9 -115q-104 -22 -202 -22q-67 0 -95 38t-14 136q84 529 86 543q18 108 -38 158t-181 50q-178 0 -303 -102l-2 -2 l-125 -809h-164zM381 1341q2 4 7 10.5t23.5 23t40 29.5t57.5 23.5t77 10.5q50 0 101.5 -16.5t86.5 -36t80.5 -36t85.5 -16.5q39 0 74 10.5t50 21.5l15 11l8 -86q-2 -3 -5 -8.5t-17.5 -19t-32.5 -23.5t-50.5 -18.5t-70.5 -8.5q-46 0 -96 16t-85.5 34.5t-83 34.5t-89.5 16 t-84.5 -17t-64.5 -34l-21 -17z" />
<glyph unicode="&#xf2;" horiz-adv-x="1159" d="M92 414q0 293 155.5 466t440.5 173q213 0 323.5 -112.5t110.5 -315.5q0 -191 -70.5 -338.5t-207.5 -231.5t-322 -84q-210 0 -320 118.5t-110 324.5zM260 408q0 -149 71 -232.5t210 -83.5q198 0 304.5 141.5t106.5 391.5q0 146 -70.5 226.5t-209.5 80.5 q-200 0 -306 -136.5t-106 -387.5zM479 1456l160 19l149 -293l-118 -11z" />
<glyph unicode="&#xf3;" horiz-adv-x="1159" d="M92 414q0 293 155.5 466t440.5 173q213 0 323.5 -112.5t110.5 -315.5q0 -191 -70.5 -338.5t-207.5 -231.5t-322 -84q-210 0 -320 118.5t-110 324.5zM260 408q0 -149 71 -232.5t210 -83.5q198 0 304.5 141.5t106.5 391.5q0 146 -70.5 226.5t-209.5 80.5 q-200 0 -306 -136.5t-106 -387.5zM623 1180l237 293l158 -17l-281 -285z" />
<glyph unicode="&#xf4;" horiz-adv-x="1159" d="M92 414q0 293 155.5 466t440.5 173q213 0 323.5 -112.5t110.5 -315.5q0 -191 -70.5 -338.5t-207.5 -231.5t-322 -84q-210 0 -320 118.5t-110 324.5zM260 408q0 -149 71 -232.5t210 -83.5q198 0 304.5 141.5t106.5 391.5q0 146 -70.5 226.5t-209.5 80.5 q-200 0 -306 -136.5t-106 -387.5zM410 1315l303 207h90l239 -207l-67 -98l-234 194l-292 -194z" />
<glyph unicode="&#xf5;" horiz-adv-x="1159" d="M92 414q0 293 155.5 466t440.5 173q213 0 323.5 -112.5t110.5 -315.5q0 -191 -70.5 -338.5t-207.5 -231.5t-322 -84q-210 0 -320 118.5t-110 324.5zM260 408q0 -149 71 -232.5t210 -83.5q198 0 304.5 141.5t106.5 391.5q0 146 -70.5 226.5t-209.5 80.5 q-200 0 -306 -136.5t-106 -387.5zM381 1341q2 4 7 10.5t23.5 23t40 29.5t57.5 23.5t77 10.5q50 0 101.5 -16.5t86.5 -36t80.5 -36t85.5 -16.5q39 0 74 10.5t50 21.5l15 11l8 -86q-2 -3 -5 -8.5t-17.5 -19t-32.5 -23.5t-50.5 -18.5t-70.5 -8.5q-46 0 -96 16t-85.5 34.5 t-83 34.5t-89.5 16t-84.5 -17t-64.5 -34l-21 -17z" />
<glyph unicode="&#xf6;" horiz-adv-x="1159" d="M92 414q0 293 155.5 466t440.5 173q213 0 323.5 -112.5t110.5 -315.5q0 -191 -70.5 -338.5t-207.5 -231.5t-322 -84q-210 0 -320 118.5t-110 324.5zM260 408q0 -149 71 -232.5t210 -83.5q198 0 304.5 141.5t106.5 391.5q0 146 -70.5 226.5t-209.5 80.5 q-200 0 -306 -136.5t-106 -387.5zM460 1319.5q6 37.5 34 62.5q31 21 63 21q35 0 59 -21q23 -25 18 -62.5t-34 -62.5q-26 -20 -65 -20q-38 0 -58 20q-23 25 -17 62.5zM821 1319.5q5 38.5 35 62.5q32 21 64 21q31 0 59 -21q21 -24 16 -62.5t-34 -62.5q-26 -20 -66 -20 q-37 0 -57 20q-22 24 -17 62.5z" />
<glyph unicode="&#xf7;" horiz-adv-x="1101" d="M90 457l8 125h955l-17 -125h-946zM401 123q0 52 41 82q34 24 76 24q43 0 70 -24q22 -22 22 -55q0 -50 -43 -84q-36 -25 -75 -25q-43 0 -68 25q-23 23 -23 57zM522 891q0 52 41 82q35 24 76 24q43 0 70 -24q22 -22 22 -55q0 -50 -43 -84q-36 -25 -76 -25q-42 0 -67 25 q-23 23 -23 57z" />
<glyph unicode="&#xf8;" horiz-adv-x="1183" d="M43 -354l231 385q-182 107 -182 383q0 293 155.5 466t440.5 173q99 0 184 -29l187 307l104 -12l-202 -338q161 -109 161 -356q0 -191 -70.5 -338.5t-207.5 -231.5t-322 -84q-80 0 -157 23l-218 -361zM260 408q0 -174 90 -252l453 751q-58 25 -131 25q-200 0 -306 -136.5 t-106 -387.5zM434 109q53 -17 107 -17q198 0 304.5 141.5t106.5 391.5q0 147 -71 227z" />
<glyph unicode="&#xf9;" horiz-adv-x="1212" d="M127 901l10 123h291l-104 -664q-18 -112 39.5 -179.5t177.5 -67.5q55 0 106 10.5t85.5 25.5t60.5 30t39 25l12 11l104 680l-117 6l9 123h295l-127 -809q-4 -58 9 -76t38 -18l96 4l-6 -115q-105 -22 -205 -22q-54 0 -77.5 23t-22.5 85h-4q-5 -5 -14.5 -13.5t-43.5 -30 t-73.5 -38t-104 -30t-135.5 -13.5q-150 0 -232.5 75.5t-82.5 211.5q0 34 6 72l86 565zM494 1456l159 19l150 -293l-119 -11z" />
<glyph unicode="&#xfa;" horiz-adv-x="1212" d="M127 901l10 123h291l-104 -664q-18 -112 39.5 -179.5t177.5 -67.5q55 0 106 10.5t85.5 25.5t60.5 30t39 25l12 11l104 680l-117 6l9 123h295l-127 -809q-4 -58 9 -76t38 -18l96 4l-6 -115q-105 -22 -205 -22q-54 0 -77.5 23t-22.5 85h-4q-5 -5 -14.5 -13.5t-43.5 -30 t-73.5 -38t-104 -30t-135.5 -13.5q-150 0 -232.5 75.5t-82.5 211.5q0 34 6 72l86 565zM637 1180l237 293l158 -17l-280 -285z" />
<glyph unicode="&#xfb;" horiz-adv-x="1212" d="M127 901l10 123h291l-104 -664q-18 -112 39.5 -179.5t177.5 -67.5q55 0 106 10.5t85.5 25.5t60.5 30t39 25l12 11l104 680l-117 6l9 123h295l-127 -809q-4 -58 9 -76t38 -18l96 4l-6 -115q-105 -22 -205 -22q-54 0 -77.5 23t-22.5 85h-4q-5 -5 -14.5 -13.5t-43.5 -30 t-73.5 -38t-104 -30t-135.5 -13.5q-150 0 -232.5 75.5t-82.5 211.5q0 34 6 72l86 565zM426 1315l303 207h90l240 -207l-68 -98l-233 194l-293 -194z" />
<glyph unicode="&#xfc;" horiz-adv-x="1212" d="M127 901l10 123h291l-104 -664q-18 -112 39.5 -179.5t177.5 -67.5q55 0 106 10.5t85.5 25.5t60.5 30t39 25l12 11l104 680l-117 6l9 123h295l-127 -809q-4 -58 9 -76t38 -18l96 4l-6 -115q-105 -22 -205 -22q-54 0 -77.5 23t-22.5 85h-4q-5 -5 -14.5 -13.5t-43.5 -30 t-73.5 -38t-104 -30t-135.5 -13.5q-150 0 -232.5 75.5t-82.5 211.5q0 34 6 72l86 565zM474.5 1319.5q5.5 37.5 33.5 62.5q31 21 63 21q35 0 60 -21q23 -25 17.5 -62.5t-34.5 -62.5q-26 -20 -65 -20q-37 0 -57 20q-23 25 -17.5 62.5zM835 1319.5q5 38.5 35 62.5q32 21 64 21 q31 0 59 -21q21 -24 16 -62.5t-34 -62.5q-26 -20 -66 -20q-37 0 -57 20q-22 24 -17 62.5z" />
<glyph unicode="&#xfd;" horiz-adv-x="1067" d="M-70 -492l37 293l111 6l-15 -217q47 -14 89 -14q56 0 100 24t73 61.5t50.5 96.5t34 116t22.5 132l-256 889l-141 6l8 123h279l235 -860h2q263 400 391 731l-123 12l11 117h284l-6 -80q-111 -326 -520 -934q-13 -110 -46.5 -206t-87.5 -175t-136.5 -124.5t-184.5 -45.5 q-67 0 -119.5 12.5t-71.5 24.5zM651 1180l238 293l158 -17l-281 -285z" />
<glyph unicode="&#xfe;" horiz-adv-x="1220" d="M55 -512l84 512h-2l217 1407l-116 6l8 123h295l-97 -625h2q4 6 12.5 15.5t39.5 34t67 43t96 34t127 15.5q186 0 293 -104.5t107 -297.5q0 -134 -39.5 -256t-111.5 -216.5t-184 -151t-247 -56.5q-192 0 -293 95l-10 -66l-84 -512h-164zM332 188q8 -11 20.5 -22t40 -29 t74 -29.5t104.5 -11.5q115 0 203 46.5t140 125.5t78 175.5t26 205.5q0 277 -297 277q-54 0 -103.5 -14t-81.5 -32t-58.5 -41t-37.5 -35.5t-16 -21.5z" />
<glyph unicode="&#xff;" horiz-adv-x="1067" d="M-70 -492l37 293l111 6l-15 -217q47 -14 89 -14q56 0 100 24t73 61.5t50.5 96.5t34 116t22.5 132l-256 889l-141 6l8 123h279l235 -860h2q263 400 391 731l-123 12l11 117h284l-6 -80q-111 -326 -520 -934q-13 -110 -46.5 -206t-87.5 -175t-136.5 -124.5t-184.5 -45.5 q-67 0 -119.5 12.5t-71.5 24.5zM488.5 1319.5q5.5 37.5 33.5 62.5q32 21 64 21q34 0 59 -21q23 -25 18 -62.5t-34 -62.5q-26 -20 -66 -20q-37 0 -57 20q-23 25 -17.5 62.5zM849.5 1319.5q5.5 38.5 35.5 62.5q31 21 63 21t60 -21q21 -24 15.5 -62.5t-34.5 -62.5 q-26 -20 -65 -20q-38 0 -58 20q-22 24 -16.5 62.5z" />
<glyph unicode="&#x152;" horiz-adv-x="2230" d="M143 567q0 365 209 578t566 213q309 0 458 -178l25 151h678l149 8l-2 -8h2l-4 -26l-31 -271h-135l10 164h-516l-61 -397l-6 -66l596 2l-21 -129h-596q-8 -29 -10 -41l-68 -434h574l45 184l125 -8l-55 -309h-879l25 166q-211 -195 -519 -195q-264 0 -411.5 163.5 t-147.5 432.5zM319 573q0 -209 106.5 -335.5t297.5 -126.5q227 0 382 156.5t195 416.5q11 62 11 129q0 195 -107.5 300.5t-304.5 105.5q-267 0 -423.5 -172t-156.5 -474z" />
<glyph unicode="&#x153;" horiz-adv-x="1890" d="M92 414q0 293 155.5 466t440.5 173q290 0 389 -205q79 96 189.5 150.5t242.5 54.5q164 0 264.5 -79.5t100.5 -209.5q0 -176 -174.5 -241.5t-593.5 -65.5q-6 -36 -14 -62q6 -142 92 -220.5t221 -78.5q60 0 113 14t86 33.5t58 39.5t36 34l10 14l86 -61q-4 -8 -13.5 -21.5 t-44.5 -48t-78 -60.5t-117 -47.5t-159 -21.5q-136 0 -240 53.5t-159 155.5q-78 -100 -195.5 -154.5t-265.5 -54.5q-210 0 -320 118.5t-110 324.5zM260 408q0 -149 71 -232.5t210 -83.5q153 0 251.5 85t137.5 241q0 88 22 174v33q0 146 -70.5 226.5t-209.5 80.5 q-200 0 -306 -136.5t-106 -387.5zM1118 559q339 0 473.5 41.5t134.5 155.5q0 79 -60.5 127.5t-172.5 48.5q-135 0 -232 -79t-139 -218v-10q0 -26 -4 -66z" />
<glyph unicode="&#x178;" horiz-adv-x="1294" d="M61 1217l11 114h495l-16 -114l-109 -5l265 -516l419 514l-100 4l16 117h463l-18 -123l-189 -4l-530 -651l-68 -426l160 -4l-18 -123h-488l11 123l163 6l66 422l-344 659zM603.5 1596.5q5.5 37.5 33.5 62.5q30 20 63 20q37 0 60 -20q23 -25 17.5 -62.5t-34.5 -62.5 q-27 -21 -65 -21q-36 0 -57 21q-23 25 -17.5 62.5zM964 1596.5q5 38.5 35 62.5q30 20 64 20q32 0 59 -20q21 -24 16 -62.5t-34 -62.5q-27 -21 -66 -21q-36 0 -57 21q-22 24 -17 62.5z" />
<glyph unicode="&#x2c6;" horiz-adv-x="788" d="M217 1315l303 207h90l240 -207l-68 -98l-233 194l-293 -194z" />
<glyph unicode="&#x2dc;" horiz-adv-x="927" d="M252 1341q2 4 7 10.5t23.5 23t40 29.5t57.5 23.5t77 10.5q50 0 101.5 -16.5t86.5 -36t80.5 -36t85.5 -16.5q39 0 74 10.5t50 21.5l15 11l8 -86q-2 -3 -5 -8.5t-17.5 -19t-32.5 -23.5t-50.5 -18.5t-70.5 -8.5q-46 0 -96 16t-85.5 34.5t-83 34.5t-89.5 16t-84.5 -17 t-63.5 -34l-22 -17z" />
<glyph unicode="&#x2000;" horiz-adv-x="951" />
<glyph unicode="&#x2001;" horiz-adv-x="1903" />
<glyph unicode="&#x2002;" horiz-adv-x="951" />
<glyph unicode="&#x2003;" horiz-adv-x="1903" />
<glyph unicode="&#x2004;" horiz-adv-x="634" />
<glyph unicode="&#x2005;" horiz-adv-x="475" />
<glyph unicode="&#x2006;" horiz-adv-x="317" />
<glyph unicode="&#x2007;" horiz-adv-x="317" />
<glyph unicode="&#x2008;" horiz-adv-x="237" />
<glyph unicode="&#x2009;" horiz-adv-x="380" />
<glyph unicode="&#x200a;" horiz-adv-x="105" />
<glyph unicode="&#x2010;" horiz-adv-x="694" d="M96 506l10 125h545l-18 -125h-537z" />
<glyph unicode="&#x2011;" horiz-adv-x="694" d="M96 506l10 125h545l-18 -125h-537z" />
<glyph unicode="&#x2012;" horiz-adv-x="694" d="M96 506l10 125h545l-18 -125h-537z" />
<glyph unicode="&#x2013;" horiz-adv-x="1099" d="M96 506l8 125h955l-17 -125h-946z" />
<glyph unicode="&#x2014;" horiz-adv-x="1464" d="M96 506l8 125h1319l-18 -125h-1309z" />
<glyph unicode="&#x2018;" horiz-adv-x="321" d="M164 1116q0 99 80.5 233.5t189.5 202.5l49 -53q-83 -58 -138.5 -149.5t-63.5 -167.5q30 0 51 -21q25 -25 19.5 -60.5t-36.5 -60.5q-31 -22 -65 -22q-37 0 -62 22l-4 4q-20 26 -20 72z" />
<glyph unicode="&#x2019;" horiz-adv-x="323" d="M94 1061q84 57 140.5 148.5t62.5 166.5q-35 4 -51 23q-23 25 -18 60.5t34 60.5q26 20 66 20q38 0 61 -20l4 -7q21 -27 21 -71q0 -98 -80.5 -231.5t-188.5 -202.5z" />
<glyph unicode="&#x201a;" horiz-adv-x="323" d="M-115 -281q83 59 139 150.5t62 165.5q-30 3 -49 22q-23 25 -18 60.5t36 60.5q27 21 66 21q35 0 59 -21l4 -6q21 -27 21 -72q0 -98 -80.5 -231.5t-187.5 -202.5z" />
<glyph unicode="&#x201c;" horiz-adv-x="671" d="M164 1116q0 99 80.5 233.5t189.5 202.5l49 -53q-83 -58 -138.5 -149.5t-63.5 -167.5q30 0 51 -21q25 -25 19.5 -60.5t-36.5 -60.5q-31 -22 -65 -22q-37 0 -62 22l-4 4q-20 26 -20 72zM512 1116q0 99 80.5 233.5t189.5 202.5l49 -53q-83 -58 -138.5 -149.5t-63.5 -167.5 q30 0 51 -21q25 -25 20 -60.5t-36 -60.5q-31 -22 -66 -22q-36 0 -61 22q-1 1 -3 2q-1 0 -1.5 0.5t-0.5 1.5q-20 26 -20 72z" />
<glyph unicode="&#x201d;" horiz-adv-x="671" d="M94 1061q84 57 140.5 148.5t62.5 166.5q-35 4 -51 23q-23 25 -18 60.5t34 60.5q26 20 66 20q38 0 61 -20l4 -7q21 -27 21 -71q0 -98 -80.5 -231.5t-188.5 -202.5zM442 1061q84 57 140.5 148.5t62.5 166.5q-35 4 -51 23q-23 25 -18 60.5t34 60.5q26 20 66 20q38 0 61 -20 l4 -7q21 -27 21 -71q0 -98 -80.5 -231.5t-187.5 -202.5z" />
<glyph unicode="&#x201e;" horiz-adv-x="671" d="M-115 -281q83 59 139 150.5t62 165.5q-30 3 -49 22q-23 25 -18 60.5t36 60.5q27 21 66 21q35 0 59 -21l4 -6q21 -27 21 -72q0 -98 -80.5 -231.5t-187.5 -202.5zM233 -281q83 59 139 150.5t62 165.5q-30 3 -49 22q-23 25 -18 60.5t36 60.5q27 21 66 21q35 0 59 -21l4 -6 q21 -27 21 -72q0 -98 -80.5 -231.5t-187.5 -202.5z" />
<glyph unicode="&#x2022;" horiz-adv-x="694" d="M197 635q0 39 19 77.5t54 65.5q59 41 129 41q72 0 119 -41q37 -37 37 -94q0 -40 -19.5 -79t-54.5 -66q-55 -41 -129 -41q-72 0 -116 41q-39 36 -39 96z" />
<glyph unicode="&#x2026;" horiz-adv-x="1550" d="M125 63q0 52 41 82q36 25 76 25q41 0 69 -25q23 -23 23 -55q0 -50 -43 -84q-35 -24 -76 -24q-44 0 -68 24q-22 22 -22 57zM616 63q0 52 41 82q36 25 76 25q42 0 70 -25q22 -22 22 -55q0 -50 -43 -84q-34 -24 -75 -24q-44 0 -68 24q-23 23 -23 57zM1110 63q0 52 41 82 q36 25 76 25q41 0 69 -25q23 -23 23 -55q0 -50 -43 -84q-34 -24 -76 -24q-43 0 -67 24q-23 23 -23 57z" />
<glyph unicode="&#x202f;" horiz-adv-x="380" />
<glyph unicode="&#x2039;" horiz-adv-x="753" d="M213 512l403 350l58 -76l-312 -276l224 -281l-78 -77z" />
<glyph unicode="&#x203a;" horiz-adv-x="751" d="M113 227l311 275l-223 280l78 80l292 -362l-399 -348z" />
<glyph unicode="&#x205f;" horiz-adv-x="475" />
<glyph unicode="&#x20ac;" horiz-adv-x="1345" d="M115 449l8 106h141q2 77 17 184l-121 2l8 109h137q66 238 226.5 373t402.5 135q166 0 287 -103l28 84h97l-35 -288h-119l4 88q-83 94 -246 94q-379 0 -481 -383h610l-16 -113h-617q-14 -100 -14 -182h602l-16 -111h-582q22 -170 129.5 -259t288.5 -89q71 0 134 16t103 39 t70 46t43 39l13 16l61 -82q-5 -8 -16 -21.5t-51.5 -48t-88.5 -60.5t-130.5 -47.5t-174.5 -21.5q-247 0 -388.5 126t-162.5 347z" />
<glyph unicode="&#x2122;" horiz-adv-x="1773" d="M299 1442l12 94h664l-14 -94h-299l-99 -623h-102l98 623h-260zM913 819l154 717h111l145 -610l367 610h102l-88 -717h-98l61 529l-317 -529h-88l-148 563l-104 -563h-97z" />
<glyph unicode="&#x25fc;" horiz-adv-x="1024" d="M0 0v1024h1024v-1024h-1024z" />
</font>
</defs>
</svg>
